<svg xmlns="http://www.w3.org/2000/svg" xmlns:xlink="http://www.w3.org/1999/xlink" width="1080" zoomAndPan="magnify" viewBox="0 0 810 809.999993" height="1080" preserveAspectRatio="xMidYMid meet" version="1.0"><defs><g/></defs><g fill="#0693e3" fill-opacity="1"><g transform="translate(0.0000035, 357.470132)"><g><path d="M 85.703125 -30.921875 C 85.703125 -30.035156 85.585938 -28.765625 85.359375 -27.109375 C 85.128906 -25.410156 84.957031 -24.425781 84.84375 -24.15625 C 84.34375 -22.15625 83.4375 -19.96875 82.125 -17.59375 C 80.8125 -15.226562 79.289062 -12.945312 77.5625 -10.75 C 75.90625 -8.632812 74.226562 -6.738281 72.53125 -5.0625 C 70.832031 -3.382812 69.390625 -2.140625 68.203125 -1.328125 C 66.960938 -0.441406 65.40625 0.429688 63.53125 1.296875 C 61.664062 2.160156 59.460938 2.976562 56.921875 3.75 C 51.878906 5.332031 47.46875 6.125 43.6875 6.125 C 40.457031 6.125 37.492188 5.546875 34.796875 4.390625 C 32.097656 3.316406 30.75 1.21875 30.75 -1.90625 C 30.75 -3.789062 31.238281 -5.164062 32.21875 -6.03125 C 33.195312 -6.90625 34.957031 -7.34375 37.5 -7.34375 C 40.3125 -7.34375 42.757812 -6.859375 44.84375 -5.890625 C 46.96875 -4.972656 48.78125 -4.515625 50.28125 -4.515625 C 51.125 -4.515625 52.816406 -4.800781 55.359375 -5.375 C 57.867188 -5.988281 59.851562 -6.796875 61.3125 -7.796875 C 62.9375 -8.878906 64.613281 -10.273438 66.34375 -11.984375 C 68.082031 -13.703125 69.671875 -15.550781 71.109375 -17.53125 C 72.554688 -19.519531 73.722656 -21.535156 74.609375 -23.578125 C 75.492188 -25.617188 75.914062 -27.546875 75.875 -29.359375 C 75.875 -31.972656 74.835938 -34.304688 72.765625 -36.359375 C 70.679688 -38.429688 68.234375 -40.046875 65.421875 -41.203125 C 62.566406 -42.359375 60.140625 -42.9375 58.140625 -42.9375 C 55.054688 -42.9375 52.707031 -42.707031 51.09375 -42.25 C 49.4375 -41.820312 47.851562 -41.242188 46.34375 -40.515625 C 44.84375 -39.785156 43.554688 -39.421875 42.484375 -39.421875 C 41.242188 -39.421875 39.96875 -39.820312 38.65625 -40.625 C 37.351562 -41.4375 36.703125 -42.457031 36.703125 -43.6875 C 36.703125 -44.769531 36.863281 -45.703125 37.1875 -46.484375 C 37.519531 -47.273438 37.953125 -47.953125 38.484375 -48.515625 C 39.023438 -49.078125 39.640625 -49.519531 40.328125 -49.84375 C 41.023438 -50.175781 41.757812 -50.414062 42.53125 -50.5625 C 43.300781 -50.757812 44.128906 -50.925781 45.015625 -51.0625 C 45.898438 -51.195312 46.847656 -51.300781 47.859375 -51.375 C 49.859375 -51.53125 51.070312 -51.722656 51.5 -51.953125 C 54.15625 -53.492188 56.890625 -55.328125 59.703125 -57.453125 C 61.160156 -58.523438 62.515625 -59.628906 63.765625 -60.765625 C 65.023438 -61.898438 66.210938 -63.066406 67.328125 -64.265625 C 69.566406 -66.617188 70.6875 -68.546875 70.6875 -70.046875 C 70.6875 -72.085938 69.835938 -73.628906 68.140625 -74.671875 C 66.441406 -75.710938 63.644531 -76.234375 59.75 -76.234375 C 58.476562 -76.234375 57.109375 -76.171875 55.640625 -76.046875 C 54.179688 -75.929688 52.679688 -75.75 51.140625 -75.5 C 49.597656 -75.25 48.046875 -74.941406 46.484375 -74.578125 C 44.929688 -74.210938 43.40625 -73.800781 41.90625 -73.34375 C 40.394531 -72.875 38.945312 -72.347656 37.5625 -71.765625 C 36.175781 -71.191406 34.882812 -70.554688 33.6875 -69.859375 C 32.5 -69.171875 31.441406 -68.429688 30.515625 -67.640625 C 29.585938 -66.859375 28.835938 -66.039062 28.265625 -65.1875 C 27.953125 -64.726562 27.726562 -63.945312 27.59375 -62.84375 C 27.457031 -61.75 27.332031 -60.007812 27.21875 -57.625 C 27.175781 -56.425781 27.132812 -55.125 27.09375 -53.71875 C 27.0625 -52.3125 27.007812 -50.742188 26.9375 -49.015625 C 26.851562 -47.273438 26.78125 -45.78125 26.71875 -44.53125 C 26.664062 -43.28125 26.601562 -42.210938 26.53125 -41.328125 C 26.445312 -40.585938 26.335938 -39.6875 26.203125 -38.625 C 26.066406 -37.570312 25.90625 -36.332031 25.71875 -34.90625 C 25.332031 -32.132812 25.03125 -29.726562 24.8125 -27.6875 C 24.601562 -25.644531 24.5 -23.71875 24.5 -21.90625 C 24.5 -21.289062 24.519531 -20.546875 24.5625 -19.671875 C 24.601562 -18.804688 24.660156 -17.816406 24.734375 -16.703125 C 24.804688 -15.585938 24.863281 -14.59375 24.90625 -13.71875 C 24.945312 -12.851562 24.96875 -12.148438 24.96875 -11.609375 C 24.96875 -8.265625 24.523438 -5.8125 23.640625 -4.25 C 22.753906 -2.6875 21.269531 -1.90625 19.1875 -1.90625 C 14.601562 -1.90625 12.3125 -5.816406 12.3125 -13.640625 C 12.3125 -14.566406 12.773438 -17.664062 13.703125 -22.9375 C 14.617188 -28.175781 15.132812 -31.453125 15.25 -32.765625 C 15.445312 -34.535156 15.613281 -36.210938 15.75 -37.796875 C 15.882812 -39.378906 16.03125 -40.878906 16.1875 -42.296875 C 16.332031 -43.722656 16.5 -45.398438 16.6875 -47.328125 C 16.882812 -49.253906 17.117188 -51.472656 17.390625 -53.984375 C 17.585938 -55.523438 17.734375 -56.773438 17.828125 -57.734375 C 17.921875 -58.703125 17.96875 -59.375 17.96875 -59.75 C 17.96875 -60.675781 17.832031 -61.703125 17.5625 -62.828125 C 17.414062 -63.441406 17.3125 -63.96875 17.25 -64.40625 C 17.195312 -64.851562 17.171875 -65.210938 17.171875 -65.484375 C 17.171875 -68.328125 17.6875 -70.769531 18.71875 -72.8125 C 20.070312 -75.507812 21.171875 -76.878906 22.015625 -76.921875 C 23.367188 -77.117188 24.640625 -77.359375 25.828125 -77.640625 C 27.023438 -77.929688 28.164062 -78.25 29.25 -78.59375 C 34.25 -80.289062 38.203125 -81.617188 41.109375 -82.578125 C 44.023438 -83.546875 45.925781 -84.164062 46.8125 -84.4375 C 48.582031 -85.007812 50.429688 -85.414062 52.359375 -85.65625 C 53.359375 -85.800781 54.550781 -85.898438 55.9375 -85.953125 C 57.332031 -86.015625 58.953125 -86.046875 60.796875 -86.046875 L 64.03125 -86.046875 C 64.84375 -86.085938 65.910156 -85.894531 67.234375 -85.46875 C 68.566406 -85.050781 69.914062 -84.492188 71.28125 -83.796875 C 72.65625 -83.109375 73.921875 -82.328125 75.078125 -81.453125 C 76.234375 -80.585938 77.039062 -79.710938 77.5 -78.828125 C 78.039062 -78.015625 78.503906 -76.78125 78.890625 -75.125 C 79.078125 -74.28125 79.226562 -73.519531 79.34375 -72.84375 C 79.457031 -72.175781 79.515625 -71.570312 79.515625 -71.03125 C 79.515625 -67.90625 78.175781 -64.703125 75.5 -61.421875 C 72.820312 -58.148438 68.921875 -54.4375 63.796875 -50.28125 C 66.648438 -49.695312 69.394531 -48.757812 72.03125 -47.46875 C 74.675781 -46.1875 77.007812 -44.664062 79.03125 -42.90625 C 81.050781 -41.15625 82.664062 -39.25 83.875 -37.1875 C 85.09375 -35.125 85.703125 -33.035156 85.703125 -30.921875 Z M 85.703125 -30.921875 "/></g></g></g><g fill="#0693e3" fill-opacity="1"><g transform="translate(89.342742, 357.470132)"><g><path d="M 34.671875 -84.609375 C 34.671875 -82.109375 34.015625 -79.96875 32.703125 -78.1875 C 31.429688 -76.414062 29.566406 -75.53125 27.109375 -75.53125 C 25.566406 -75.53125 23.851562 -75.765625 21.96875 -76.234375 C 20.113281 -76.691406 19.1875 -77.441406 19.1875 -78.484375 C 19.1875 -80.367188 19.773438 -82.164062 20.953125 -83.875 C 22.128906 -85.59375 23.546875 -86.992188 25.203125 -88.078125 C 26.503906 -88.847656 27.367188 -89.234375 27.796875 -89.234375 C 29.992188 -89.234375 31.6875 -88.929688 32.875 -88.328125 C 34.070312 -87.734375 34.671875 -86.492188 34.671875 -84.609375 Z M 72.53125 -37.625 C 72.570312 -36.8125 72.210938 -35.710938 71.453125 -34.328125 C 70.703125 -32.941406 69.679688 -31.367188 68.390625 -29.609375 C 67.109375 -27.859375 65.609375 -25.984375 63.890625 -23.984375 C 62.171875 -21.984375 60.367188 -19.976562 58.484375 -17.96875 C 56.328125 -15.65625 54.046875 -13.429688 51.640625 -11.296875 C 49.234375 -9.160156 46.660156 -7.085938 43.921875 -5.078125 C 38.523438 -1.078125 33.707031 0.921875 29.46875 0.921875 C 24.8125 0.921875 21.191406 -0.632812 18.609375 -3.75 C 16.023438 -6.914062 14.269531 -10.734375 13.34375 -15.203125 C 12.425781 -19.628906 11.96875 -24.191406 11.96875 -28.890625 C 11.96875 -30.859375 12.195312 -33.921875 12.65625 -38.078125 C 12.882812 -40.160156 13.113281 -41.953125 13.34375 -43.453125 C 13.582031 -44.960938 13.832031 -46.175781 14.09375 -47.09375 C 14.632812 -48.90625 15.773438 -50.488281 17.515625 -51.84375 C 19.285156 -53.269531 21.132812 -53.984375 23.0625 -53.984375 C 24.101562 -53.984375 24.625 -53 24.625 -51.03125 C 24.625 -49.71875 24.5 -48.234375 24.25 -46.578125 C 24 -44.921875 23.738281 -43.285156 23.46875 -41.671875 C 22.96875 -38.628906 22.597656 -35.898438 22.359375 -33.484375 C 22.128906 -31.078125 22.015625 -28.988281 22.015625 -27.21875 C 22.015625 -23.332031 22.554688 -19.40625 23.640625 -15.4375 C 24.710938 -11.382812 26.65625 -9.359375 29.46875 -9.359375 C 32.320312 -9.359375 35.640625 -10.398438 39.421875 -12.484375 C 41.304688 -13.554688 43.191406 -14.75 45.078125 -16.0625 C 46.960938 -17.375 48.847656 -18.835938 50.734375 -20.453125 C 52.660156 -22.078125 54.507812 -23.707031 56.28125 -25.34375 C 58.0625 -26.976562 59.796875 -28.664062 61.484375 -30.40625 C 63.179688 -32.132812 64.703125 -33.75 66.046875 -35.25 C 67.398438 -36.75 68.578125 -38.140625 69.578125 -39.421875 C 69.617188 -39.492188 69.6875 -39.613281 69.78125 -39.78125 C 69.875 -39.957031 69.976562 -40.132812 70.09375 -40.3125 C 70.21875 -40.488281 70.335938 -40.632812 70.453125 -40.75 C 70.566406 -40.863281 70.679688 -40.898438 70.796875 -40.859375 C 71.335938 -40.859375 71.742188 -40.4375 72.015625 -39.59375 C 72.359375 -38.78125 72.53125 -38.125 72.53125 -37.625 Z M 72.53125 -37.625 "/></g></g></g><g fill="#0693e3" fill-opacity="1"><g transform="translate(144.474031, 357.470132)"><g><path d="M 67.046875 -35.015625 C 67.046875 -33.210938 65.945312 -30.382812 63.75 -26.53125 C 63.320312 -25.789062 62.734375 -24.910156 61.984375 -23.890625 C 61.234375 -22.867188 60.394531 -21.8125 59.46875 -20.71875 C 58.539062 -19.625 57.578125 -18.503906 56.578125 -17.359375 C 55.578125 -16.222656 54.59375 -15.175781 53.625 -14.21875 C 52.164062 -12.75 50.554688 -11.320312 48.796875 -9.9375 C 47.046875 -8.550781 45.195312 -7.300781 43.25 -6.1875 C 41.3125 -5.070312 39.3125 -4.175781 37.25 -3.5 C 35.1875 -2.820312 33.15625 -2.484375 31.15625 -2.484375 C 28.488281 -2.484375 26 -2.960938 23.6875 -3.921875 C 21.382812 -4.890625 19.375 -6.375 17.65625 -8.375 C 15.9375 -10.382812 14.585938 -12.898438 13.609375 -15.921875 C 12.628906 -18.941406 12.140625 -22.515625 12.140625 -26.640625 C 12.140625 -29.453125 12.273438 -32.390625 12.546875 -35.453125 C 12.816406 -38.515625 13.160156 -41.585938 13.578125 -44.671875 C 14.003906 -47.753906 14.476562 -50.804688 15 -53.828125 C 15.519531 -56.859375 16.050781 -59.78125 16.59375 -62.59375 C 16.9375 -64.519531 17.234375 -66.097656 17.484375 -67.328125 C 17.734375 -68.554688 17.953125 -69.691406 18.140625 -70.734375 C 18.335938 -71.773438 18.507812 -72.828125 18.65625 -73.890625 C 18.8125 -74.953125 19.007812 -76.269531 19.25 -77.84375 C 19.394531 -78.925781 19.535156 -79.878906 19.671875 -80.703125 C 19.804688 -81.535156 19.914062 -82.222656 20 -82.765625 C 20.15625 -83.679688 20.414062 -84.5625 20.78125 -85.40625 C 21.144531 -86.257812 21.601562 -87.015625 22.15625 -87.671875 C 22.71875 -88.328125 23.363281 -88.847656 24.09375 -89.234375 C 24.832031 -89.617188 25.644531 -89.8125 26.53125 -89.8125 C 28.375 -89.8125 29.738281 -88.941406 30.625 -87.203125 C 30.394531 -86.015625 30.15625 -84.867188 29.90625 -83.765625 C 29.65625 -82.671875 29.4375 -81.507812 29.25 -80.28125 C 28.28125 -75.414062 27.488281 -71.476562 26.875 -68.46875 C 26.257812 -65.46875 25.816406 -63.351562 25.546875 -62.125 C 25.078125 -59.695312 24.582031 -57.078125 24.0625 -54.265625 C 23.550781 -51.453125 23.070312 -48.582031 22.625 -45.65625 C 22.1875 -42.726562 21.832031 -39.835938 21.5625 -36.984375 C 21.289062 -34.128906 21.15625 -31.472656 21.15625 -29.015625 C 21.15625 -26.359375 21.363281 -23.941406 21.78125 -21.765625 C 22.207031 -19.585938 22.890625 -17.726562 23.828125 -16.1875 C 24.773438 -14.644531 25.988281 -13.445312 27.46875 -12.59375 C 28.957031 -11.75 30.765625 -11.328125 32.890625 -11.328125 C 35.203125 -11.328125 37.472656 -11.835938 39.703125 -12.859375 C 41.941406 -13.878906 44.085938 -15.175781 46.140625 -16.75 C 48.203125 -18.332031 50.15625 -20.078125 52 -21.984375 C 53.851562 -23.890625 55.550781 -25.734375 57.09375 -27.515625 C 58.332031 -28.972656 59.410156 -30.234375 60.328125 -31.296875 C 61.253906 -32.359375 62.023438 -33.253906 62.640625 -33.984375 C 63.148438 -34.554688 63.722656 -35.148438 64.359375 -35.765625 C 64.992188 -36.390625 65.578125 -36.703125 66.109375 -36.703125 C 66.734375 -36.703125 67.046875 -36.140625 67.046875 -35.015625 Z M 67.046875 -35.015625 "/></g></g></g><g fill="#0693e3" fill-opacity="1"><g transform="translate(197.004787, 357.470132)"><g><path d="M 80.625 -39.875 C 80.625 -39.300781 80.195312 -38.28125 79.34375 -36.8125 C 77.34375 -33.925781 75.097656 -31.035156 72.609375 -28.140625 C 70.128906 -25.253906 67.492188 -22.507812 64.703125 -19.90625 C 61.910156 -17.3125 59 -14.882812 55.96875 -12.625 C 52.945312 -10.375 49.894531 -8.425781 46.8125 -6.78125 C 43.726562 -5.144531 40.65625 -3.882812 37.59375 -3 C 34.53125 -2.113281 31.570312 -1.691406 28.71875 -1.734375 C 22.550781 -1.734375 17.765625 -3.523438 14.359375 -7.109375 C 10.953125 -10.691406 9.25 -16.101562 9.25 -23.34375 C 9.25 -29.394531 10.179688 -35.269531 12.046875 -40.96875 C 13.921875 -46.675781 17.109375 -52.171875 21.609375 -57.453125 C 22.460938 -58.367188 23.414062 -59.25 24.46875 -60.09375 C 25.53125 -60.945312 26.648438 -61.703125 27.828125 -62.359375 C 29.003906 -63.015625 30.21875 -63.535156 31.46875 -63.921875 C 32.71875 -64.304688 33.976562 -64.535156 35.25 -64.609375 C 35.5625 -64.609375 35.984375 -64.566406 36.515625 -64.484375 C 37.054688 -64.410156 37.632812 -64.273438 38.25 -64.078125 C 38.875 -63.890625 39.472656 -63.648438 40.046875 -63.359375 C 40.628906 -63.078125 41.09375 -62.722656 41.4375 -62.296875 C 42.519531 -61.066406 43.378906 -59.796875 44.015625 -58.484375 C 44.648438 -57.171875 45.003906 -55.726562 45.078125 -54.15625 C 45.148438 -52.382812 44.945312 -50.640625 44.46875 -48.921875 C 43.988281 -47.203125 43.179688 -45.445312 42.046875 -43.65625 C 40.910156 -41.863281 39.414062 -40.015625 37.5625 -38.109375 C 35.71875 -36.203125 33.484375 -34.148438 30.859375 -31.953125 C 29.203125 -30.566406 27.363281 -29.035156 25.34375 -27.359375 C 23.320312 -25.679688 20.882812 -23.921875 18.03125 -22.078125 C 18.03125 -18.335938 19.15625 -15.492188 21.40625 -13.546875 C 23.664062 -11.609375 26.757812 -10.640625 30.6875 -10.640625 C 32.882812 -10.640625 35.097656 -10.925781 37.328125 -11.5 C 39.566406 -12.082031 41.765625 -12.84375 43.921875 -13.78125 C 46.078125 -14.726562 48.164062 -15.804688 50.1875 -17.015625 C 52.21875 -18.234375 54.117188 -19.476562 55.890625 -20.75 C 59.160156 -23.132812 62.125 -25.507812 64.78125 -27.875 C 67.4375 -30.25 70.078125 -32.75 72.703125 -35.375 L 75.828125 -38.484375 C 77.710938 -40.140625 79.078125 -40.96875 79.921875 -40.96875 C 80.390625 -40.96875 80.625 -40.601562 80.625 -39.875 Z M 36.46875 -51.375 C 36.425781 -51.957031 36.335938 -52.523438 36.203125 -53.078125 C 36.066406 -53.640625 35.863281 -54.128906 35.59375 -54.546875 C 35.332031 -54.972656 35.023438 -55.3125 34.671875 -55.5625 C 34.328125 -55.8125 33.925781 -55.9375 33.46875 -55.9375 C 31.425781 -55.820312 29.378906 -54.578125 27.328125 -52.203125 C 25.285156 -49.835938 23.363281 -46.710938 21.5625 -42.828125 C 21.132812 -41.972656 20.753906 -41.015625 20.421875 -39.953125 C 20.097656 -38.898438 19.789062 -37.820312 19.5 -36.71875 C 19.21875 -35.625 18.96875 -34.535156 18.75 -33.453125 C 18.539062 -32.378906 18.359375 -31.421875 18.203125 -30.578125 C 20.203125 -32.078125 22.050781 -33.460938 23.75 -34.734375 C 25.445312 -36.003906 27.023438 -37.3125 28.484375 -38.65625 C 29.410156 -39.507812 30.351562 -40.425781 31.3125 -41.40625 C 32.28125 -42.382812 33.160156 -43.414062 33.953125 -44.5 C 34.742188 -45.582031 35.367188 -46.703125 35.828125 -47.859375 C 36.296875 -49.015625 36.507812 -50.1875 36.46875 -51.375 Z M 36.46875 -51.375 "/></g></g></g><g fill="#0693e3" fill-opacity="1"><g transform="translate(259.301988, 357.470132)"><g><path d="M 67.046875 -35.015625 C 67.046875 -33.210938 65.945312 -30.382812 63.75 -26.53125 C 63.320312 -25.789062 62.734375 -24.910156 61.984375 -23.890625 C 61.234375 -22.867188 60.394531 -21.8125 59.46875 -20.71875 C 58.539062 -19.625 57.578125 -18.503906 56.578125 -17.359375 C 55.578125 -16.222656 54.59375 -15.175781 53.625 -14.21875 C 52.164062 -12.75 50.554688 -11.320312 48.796875 -9.9375 C 47.046875 -8.550781 45.195312 -7.300781 43.25 -6.1875 C 41.3125 -5.070312 39.3125 -4.175781 37.25 -3.5 C 35.1875 -2.820312 33.15625 -2.484375 31.15625 -2.484375 C 28.488281 -2.484375 26 -2.960938 23.6875 -3.921875 C 21.382812 -4.890625 19.375 -6.375 17.65625 -8.375 C 15.9375 -10.382812 14.585938 -12.898438 13.609375 -15.921875 C 12.628906 -18.941406 12.140625 -22.515625 12.140625 -26.640625 C 12.140625 -29.453125 12.273438 -32.390625 12.546875 -35.453125 C 12.816406 -38.515625 13.160156 -41.585938 13.578125 -44.671875 C 14.003906 -47.753906 14.476562 -50.804688 15 -53.828125 C 15.519531 -56.859375 16.050781 -59.78125 16.59375 -62.59375 C 16.9375 -64.519531 17.234375 -66.097656 17.484375 -67.328125 C 17.734375 -68.554688 17.953125 -69.691406 18.140625 -70.734375 C 18.335938 -71.773438 18.507812 -72.828125 18.65625 -73.890625 C 18.8125 -74.953125 19.007812 -76.269531 19.25 -77.84375 C 19.394531 -78.925781 19.535156 -79.878906 19.671875 -80.703125 C 19.804688 -81.535156 19.914062 -82.222656 20 -82.765625 C 20.15625 -83.679688 20.414062 -84.5625 20.78125 -85.40625 C 21.144531 -86.257812 21.601562 -87.015625 22.15625 -87.671875 C 22.71875 -88.328125 23.363281 -88.847656 24.09375 -89.234375 C 24.832031 -89.617188 25.644531 -89.8125 26.53125 -89.8125 C 28.375 -89.8125 29.738281 -88.941406 30.625 -87.203125 C 30.394531 -86.015625 30.15625 -84.867188 29.90625 -83.765625 C 29.65625 -82.671875 29.4375 -81.507812 29.25 -80.28125 C 28.28125 -75.414062 27.488281 -71.476562 26.875 -68.46875 C 26.257812 -65.46875 25.816406 -63.351562 25.546875 -62.125 C 25.078125 -59.695312 24.582031 -57.078125 24.0625 -54.265625 C 23.550781 -51.453125 23.070312 -48.582031 22.625 -45.65625 C 22.1875 -42.726562 21.832031 -39.835938 21.5625 -36.984375 C 21.289062 -34.128906 21.15625 -31.472656 21.15625 -29.015625 C 21.15625 -26.359375 21.363281 -23.941406 21.78125 -21.765625 C 22.207031 -19.585938 22.890625 -17.726562 23.828125 -16.1875 C 24.773438 -14.644531 25.988281 -13.445312 27.46875 -12.59375 C 28.957031 -11.75 30.765625 -11.328125 32.890625 -11.328125 C 35.203125 -11.328125 37.472656 -11.835938 39.703125 -12.859375 C 41.941406 -13.878906 44.085938 -15.175781 46.140625 -16.75 C 48.203125 -18.332031 50.15625 -20.078125 52 -21.984375 C 53.851562 -23.890625 55.550781 -25.734375 57.09375 -27.515625 C 58.332031 -28.972656 59.410156 -30.234375 60.328125 -31.296875 C 61.253906 -32.359375 62.023438 -33.253906 62.640625 -33.984375 C 63.148438 -34.554688 63.722656 -35.148438 64.359375 -35.765625 C 64.992188 -36.390625 65.578125 -36.703125 66.109375 -36.703125 C 66.734375 -36.703125 67.046875 -36.140625 67.046875 -35.015625 Z M 67.046875 -35.015625 "/></g></g></g><g fill="#0693e3" fill-opacity="1"><g transform="translate(311.843979, 357.470132)"><g/></g></g><g fill="#0693e3" fill-opacity="1"><g transform="translate(47.329695, 522.692978)"><g/></g></g><g fill="#0693e3" fill-opacity="1"><g transform="translate(94.659386, 522.692978)"><g/></g></g><g fill="#0693e3" fill-opacity="1"><g transform="translate(141.989077, 522.692978)"><g/></g></g><g fill="#0693e3" fill-opacity="1"><g transform="translate(189.318768, 522.692978)"><g/></g></g><g fill="#0693e3" fill-opacity="1"><g transform="translate(236.659097, 522.692978)"><g><path d="M 93.390625 -79.515625 C 93.390625 -77.785156 92.914062 -76.3125 91.96875 -75.09375 C 91.03125 -73.882812 89.691406 -73.28125 87.953125 -73.28125 C 87.304688 -73.28125 86.585938 -73.578125 85.796875 -74.171875 C 85.003906 -74.773438 84.28125 -75.363281 83.625 -75.9375 C 83.007812 -76.550781 82.296875 -77.085938 81.484375 -77.546875 C 80.679688 -78.015625 79.796875 -78.25 78.828125 -78.25 C 74.085938 -78.25 67.984375 -76.671875 60.515625 -73.515625 C 56.773438 -71.890625 53.285156 -70.046875 50.046875 -67.984375 C 46.804688 -65.929688 43.628906 -63.613281 40.515625 -61.03125 C 37.390625 -58.445312 34.429688 -55.582031 31.640625 -52.4375 C 28.847656 -49.300781 26.390625 -46.175781 24.265625 -43.0625 C 22.304688 -40.25 20.769531 -36.835938 19.65625 -32.828125 C 18.613281 -28.898438 18.09375 -25.066406 18.09375 -21.328125 C 18.09375 -19.554688 19 -17.707031 20.8125 -15.78125 C 22.613281 -13.925781 24.476562 -12.726562 26.40625 -12.1875 C 28.757812 -11.570312 31.554688 -11.265625 34.796875 -11.265625 C 37.222656 -11.234375 39.820312 -11.535156 42.59375 -12.171875 C 45.363281 -12.804688 48.132812 -13.671875 50.90625 -14.765625 C 53.6875 -15.859375 56.382812 -17.109375 59 -18.515625 C 61.625 -19.921875 64.015625 -21.394531 66.171875 -22.9375 C 66.941406 -23.5625 67.757812 -24.285156 68.625 -25.109375 C 69.488281 -25.941406 70.367188 -26.914062 71.265625 -28.03125 C 72.179688 -29.144531 72.957031 -30.179688 73.59375 -31.140625 C 74.226562 -32.109375 74.738281 -33.015625 75.125 -33.859375 C 75.394531 -34.242188 75.53125 -34.75 75.53125 -35.375 C 75.53125 -35.945312 75.40625 -36.664062 75.15625 -37.53125 C 74.90625 -38.40625 74.78125 -39.109375 74.78125 -39.640625 C 74.78125 -41.066406 76.515625 -41.78125 79.984375 -41.78125 C 81.066406 -41.78125 82.6875 -40.972656 84.84375 -39.359375 C 87 -37.734375 88.078125 -36.476562 88.078125 -35.59375 C 88.078125 -35.476562 86.882812 -33.035156 84.5 -28.265625 C 83.300781 -25.867188 82.382812 -24.015625 81.75 -22.703125 C 81.113281 -21.398438 80.738281 -20.613281 80.625 -20.34375 C 79.96875 -18.84375 79.3125 -17.15625 78.65625 -15.28125 C 78 -13.414062 77.34375 -11.347656 76.6875 -9.078125 C 75.34375 -4.492188 74.671875 -1.238281 74.671875 0.6875 C 74.585938 1.113281 74.632812 1.53125 74.8125 1.9375 C 74.988281 2.34375 75.179688 2.707031 75.390625 3.03125 C 75.597656 3.363281 75.804688 3.65625 76.015625 3.90625 C 76.234375 4.15625 76.34375 4.316406 76.34375 4.390625 C 76.34375 5.316406 76.175781 6.175781 75.84375 6.96875 C 75.519531 7.757812 75.078125 8.453125 74.515625 9.046875 C 73.960938 9.640625 73.289062 10.109375 72.5 10.453125 C 71.707031 10.804688 70.847656 10.984375 69.921875 10.984375 C 67.921875 10.984375 66.570312 10.296875 65.875 8.921875 C 65.1875 7.554688 64.84375 5.71875 64.84375 3.40625 C 64.84375 2.789062 64.867188 2.191406 64.921875 1.609375 C 64.984375 1.035156 65.050781 0.460938 65.125 -0.109375 C 65.363281 -1.304688 65.65625 -2.640625 66 -4.109375 C 66.1875 -4.835938 66.359375 -5.476562 66.515625 -6.03125 C 66.671875 -6.59375 66.785156 -7.066406 66.859375 -7.453125 C 67.398438 -9.609375 67.671875 -11.070312 67.671875 -11.84375 C 67.671875 -12.226562 67.59375 -12.421875 67.4375 -12.421875 C 66.632812 -12.421875 64.113281 -11.363281 59.875 -9.25 C 57.71875 -8.207031 55.992188 -7.378906 54.703125 -6.765625 C 53.410156 -6.148438 52.535156 -5.742188 52.078125 -5.546875 C 45.367188 -2.804688 39.046875 -1.4375 33.109375 -1.4375 C 29.296875 -1.4375 25.269531 -2.207031 21.03125 -3.75 C 16.71875 -5.332031 13.097656 -7.585938 10.171875 -10.515625 C 7.242188 -13.484375 5.78125 -16.914062 5.78125 -20.8125 C 5.78125 -32.207031 11.039062 -44.015625 21.5625 -56.234375 C 26.175781 -61.585938 30.679688 -66.113281 35.078125 -69.8125 C 39.390625 -73.394531 44.671875 -76.785156 50.921875 -79.984375 C 51.921875 -80.523438 53.054688 -81.070312 54.328125 -81.625 C 55.597656 -82.1875 57.003906 -82.757812 58.546875 -83.34375 C 61.660156 -84.53125 64.757812 -85.566406 67.84375 -86.453125 C 70.925781 -87.335938 73.796875 -87.957031 76.453125 -88.3125 C 78.109375 -88.539062 80.597656 -88.65625 83.921875 -88.65625 C 85.109375 -88.695312 86.28125 -88.472656 87.4375 -87.984375 C 88.59375 -87.503906 89.613281 -86.832031 90.5 -85.96875 C 91.382812 -85.101562 92.097656 -84.109375 92.640625 -82.984375 C 93.179688 -81.867188 93.429688 -80.710938 93.390625 -79.515625 Z M 93.390625 -79.515625 "/></g></g></g><g fill="#0693e3" fill-opacity="1"><g transform="translate(331.723006, 522.692978)"><g><path d="M 65.1875 -46.640625 C 65.1875 -46.410156 65.164062 -46.070312 65.125 -45.625 C 65.09375 -45.1875 65 -44.742188 64.84375 -44.296875 C 64.6875 -43.859375 64.5 -43.460938 64.28125 -43.109375 C 64.070312 -42.765625 63.796875 -42.59375 63.453125 -42.59375 C 63.222656 -42.59375 62.835938 -42.601562 62.296875 -42.625 C 61.753906 -42.644531 61.1875 -42.671875 60.59375 -42.703125 C 60 -42.742188 59.429688 -42.773438 58.890625 -42.796875 C 58.347656 -42.816406 57.960938 -42.828125 57.734375 -42.828125 C 50.378906 -42.359375 44.253906 -39.660156 39.359375 -34.734375 C 34.535156 -29.921875 30.375 -23.488281 26.875 -15.4375 C 26.21875 -13.78125 25.570312 -12.0625 24.9375 -10.28125 C 24.300781 -8.507812 23.691406 -6.644531 23.109375 -4.6875 C 22.804688 -3.601562 22.585938 -2.644531 22.453125 -1.8125 C 22.316406 -0.988281 22.09375 -0.113281 21.78125 0.8125 C 21.707031 1.113281 21.378906 1.410156 20.796875 1.703125 C 20.222656 1.992188 19.578125 2.253906 18.859375 2.484375 C 18.148438 2.710938 17.46875 2.90625 16.8125 3.0625 C 16.15625 3.21875 15.710938 3.296875 15.484375 3.296875 C 12.828125 3.453125 11.328125 0.695312 10.984375 -4.96875 C 10.867188 -6.507812 10.816406 -7.90625 10.828125 -9.15625 C 10.847656 -10.40625 10.894531 -11.617188 10.96875 -12.796875 C 11.050781 -13.972656 11.160156 -15.207031 11.296875 -16.5 C 11.429688 -17.789062 11.578125 -19.242188 11.734375 -20.859375 C 11.921875 -22.867188 12.148438 -25.179688 12.421875 -27.796875 C 12.691406 -30.421875 13 -33.0625 13.34375 -35.71875 C 13.695312 -38.375 14.066406 -40.90625 14.453125 -43.3125 C 14.835938 -45.71875 15.238281 -47.710938 15.65625 -49.296875 C 16.082031 -51.109375 16.671875 -52.457031 17.421875 -53.34375 C 18.171875 -54.226562 19.28125 -54.707031 20.75 -54.78125 C 21.132812 -54.78125 21.546875 -54.675781 21.984375 -54.46875 C 22.429688 -54.257812 22.835938 -53.976562 23.203125 -53.625 C 23.566406 -53.28125 23.875 -52.914062 24.125 -52.53125 C 24.375 -52.144531 24.519531 -51.800781 24.5625 -51.5 C 24.601562 -50.53125 24.582031 -49.476562 24.5 -48.34375 C 24.425781 -47.207031 24.289062 -46.03125 24.09375 -44.8125 C 23.90625 -43.601562 23.675781 -42.378906 23.40625 -41.140625 C 23.132812 -39.910156 22.863281 -38.738281 22.59375 -37.625 C 22.050781 -35.425781 21.632812 -33.546875 21.34375 -31.984375 C 21.0625 -30.421875 20.820312 -28.90625 20.625 -27.4375 C 20.4375 -25.976562 20.242188 -24.410156 20.046875 -22.734375 C 19.859375 -21.066406 19.609375 -19 19.296875 -16.53125 C 19.953125 -17.988281 20.519531 -19.238281 21 -20.28125 C 21.488281 -21.320312 21.925781 -22.238281 22.3125 -23.03125 C 22.695312 -23.820312 23.050781 -24.523438 23.375 -25.140625 C 23.707031 -25.753906 24.066406 -26.398438 24.453125 -27.078125 C 24.835938 -27.753906 25.257812 -28.492188 25.71875 -29.296875 C 26.175781 -30.109375 26.753906 -31.09375 27.453125 -32.25 C 30.148438 -36.71875 33.039062 -40.367188 36.125 -43.203125 C 39.207031 -46.035156 42.171875 -48.066406 45.015625 -49.296875 C 48.253906 -50.835938 50.914062 -51.664062 53 -51.78125 C 54 -51.820312 55.191406 -51.765625 56.578125 -51.609375 C 57.960938 -51.453125 59.289062 -51.160156 60.5625 -50.734375 C 61.832031 -50.316406 62.921875 -49.769531 63.828125 -49.09375 C 64.734375 -48.414062 65.1875 -47.597656 65.1875 -46.640625 Z M 65.1875 -46.640625 "/></g></g></g><g fill="#0693e3" fill-opacity="1"><g transform="translate(392.286519, 522.692978)"><g><path d="M 95.359375 -39.359375 C 95.359375 -38.890625 95.300781 -38.335938 95.1875 -37.703125 C 95.070312 -37.066406 94.90625 -36.421875 94.6875 -35.765625 C 94.476562 -35.117188 94.25 -34.492188 94 -33.890625 C 93.75 -33.296875 93.488281 -32.828125 93.21875 -32.484375 C 92.988281 -32.171875 92.648438 -31.753906 92.203125 -31.234375 C 91.765625 -30.710938 91.273438 -30.144531 90.734375 -29.53125 C 90.191406 -28.914062 89.601562 -28.269531 88.96875 -27.59375 C 88.332031 -26.914062 87.671875 -26.269531 86.984375 -25.65625 C 84.585938 -23.457031 82.242188 -21.328125 79.953125 -19.265625 C 77.660156 -17.210938 75.300781 -15.394531 72.875 -13.8125 C 70.445312 -12.226562 67.910156 -10.960938 65.265625 -10.015625 C 62.628906 -9.078125 59.769531 -8.628906 56.6875 -8.671875 C 55.269531 -8.671875 53.835938 -8.929688 52.390625 -9.453125 C 50.941406 -9.972656 49.582031 -10.710938 48.3125 -11.671875 C 47.039062 -12.640625 45.941406 -13.796875 45.015625 -15.140625 C 44.097656 -16.492188 43.445312 -17.976562 43.0625 -19.59375 C 41.9375 -18.4375 40.757812 -17.226562 39.53125 -15.96875 C 38.300781 -14.71875 37.019531 -13.457031 35.6875 -12.1875 C 34.351562 -10.914062 32.972656 -9.679688 31.546875 -8.484375 C 30.128906 -7.296875 28.664062 -6.203125 27.15625 -5.203125 C 26.3125 -4.660156 25.300781 -4.082031 24.125 -3.46875 C 22.945312 -2.851562 21.710938 -2.285156 20.421875 -1.765625 C 19.140625 -1.242188 17.851562 -0.816406 16.5625 -0.484375 C 15.269531 -0.160156 14.101562 0 13.0625 0 C 11.476562 0 10.117188 -0.488281 8.984375 -1.46875 C 7.847656 -2.457031 6.90625 -3.660156 6.15625 -5.078125 C 5.40625 -6.503906 4.847656 -8.023438 4.484375 -9.640625 C 4.117188 -11.265625 3.9375 -12.710938 3.9375 -13.984375 C 3.9375 -16.523438 4.300781 -19.125 5.03125 -21.78125 C 5.757812 -24.445312 6.710938 -27.039062 7.890625 -29.5625 C 9.066406 -32.082031 10.375 -34.476562 11.8125 -36.75 C 13.257812 -39.03125 14.675781 -41.054688 16.0625 -42.828125 C 17.53125 -44.671875 19.265625 -46.507812 21.265625 -48.34375 C 23.265625 -50.175781 25.34375 -51.8125 27.5 -53.25 C 29.664062 -54.695312 31.785156 -55.863281 33.859375 -56.75 C 35.941406 -57.632812 37.796875 -58.078125 39.421875 -58.078125 C 40.222656 -58.078125 41.078125 -58.078125 41.984375 -58.078125 C 42.890625 -58.078125 43.785156 -58.03125 44.671875 -57.9375 C 45.554688 -57.84375 46.421875 -57.6875 47.265625 -57.46875 C 48.117188 -57.257812 48.894531 -56.941406 49.59375 -56.515625 C 49.9375 -56.285156 50.335938 -55.84375 50.796875 -55.1875 C 51.265625 -54.53125 51.695312 -53.796875 52.09375 -52.984375 C 52.5 -52.179688 52.835938 -51.375 53.109375 -50.5625 C 53.378906 -49.757812 53.515625 -49.125 53.515625 -48.65625 C 53.515625 -47.382812 53.226562 -45.691406 52.65625 -43.578125 C 52.03125 -40.921875 51.457031 -38.503906 50.9375 -36.328125 C 50.414062 -34.148438 50.15625 -31.90625 50.15625 -29.59375 C 50.15625 -28.28125 50.367188 -26.9375 50.796875 -25.5625 C 51.222656 -24.195312 51.832031 -22.957031 52.625 -21.84375 C 53.414062 -20.726562 54.378906 -19.8125 55.515625 -19.09375 C 56.648438 -18.382812 57.929688 -18.03125 59.359375 -18.03125 C 61.703125 -18.03125 64.109375 -18.519531 66.578125 -19.5 C 69.046875 -20.488281 71.539062 -21.835938 74.0625 -23.546875 C 76.582031 -25.265625 79.09375 -27.25 81.59375 -29.5 C 84.101562 -31.757812 86.570312 -34.160156 89 -36.703125 C 89.195312 -36.929688 89.535156 -37.320312 90.015625 -37.875 C 90.492188 -38.4375 90.992188 -38.992188 91.515625 -39.546875 C 92.035156 -40.109375 92.546875 -40.609375 93.046875 -41.046875 C 93.546875 -41.492188 93.910156 -41.71875 94.140625 -41.71875 C 94.953125 -41.71875 95.359375 -40.929688 95.359375 -39.359375 Z M 43.921875 -44.15625 C 43.921875 -44.8125 43.878906 -45.617188 43.796875 -46.578125 C 43.722656 -47.546875 43.476562 -48.335938 43.0625 -48.953125 C 42.632812 -49.566406 42.113281 -49.863281 41.5 -49.84375 C 40.882812 -49.820312 40.265625 -49.8125 39.640625 -49.8125 C 38.296875 -49.8125 36.992188 -49.597656 35.734375 -49.171875 C 34.484375 -48.753906 33.257812 -48.171875 32.0625 -47.421875 C 30.875 -46.671875 29.726562 -45.800781 28.625 -44.8125 C 27.53125 -43.832031 26.460938 -42.800781 25.421875 -41.71875 C 24.535156 -40.832031 23.601562 -39.734375 22.625 -38.421875 C 21.644531 -37.117188 20.679688 -35.6875 19.734375 -34.125 C 18.785156 -32.5625 17.867188 -30.921875 16.984375 -29.203125 C 16.097656 -27.492188 15.328125 -25.800781 14.671875 -24.125 C 14.023438 -22.445312 13.507812 -20.828125 13.125 -19.265625 C 12.738281 -17.710938 12.546875 -16.300781 12.546875 -15.03125 C 12.546875 -14.644531 12.59375 -14.132812 12.6875 -13.5 C 12.78125 -12.863281 12.929688 -12.242188 13.140625 -11.640625 C 13.359375 -11.046875 13.648438 -10.535156 14.015625 -10.109375 C 14.378906 -9.691406 14.832031 -9.484375 15.375 -9.484375 C 17.144531 -9.484375 19.359375 -10.039062 22.015625 -11.15625 C 25.640625 -12.695312 28.925781 -14.804688 31.875 -17.484375 C 34.820312 -20.160156 37.335938 -23.253906 39.421875 -26.765625 C 42.421875 -32.191406 43.921875 -37.988281 43.921875 -44.15625 Z M 43.921875 -44.15625 "/></g></g></g><g fill="#0693e3" fill-opacity="1"><g transform="translate(469.897966, 522.692978)"><g><path d="M 34.671875 -84.609375 C 34.671875 -82.109375 34.015625 -79.96875 32.703125 -78.1875 C 31.429688 -76.414062 29.566406 -75.53125 27.109375 -75.53125 C 25.566406 -75.53125 23.851562 -75.765625 21.96875 -76.234375 C 20.113281 -76.691406 19.1875 -77.441406 19.1875 -78.484375 C 19.1875 -80.367188 19.773438 -82.164062 20.953125 -83.875 C 22.128906 -85.59375 23.546875 -86.992188 25.203125 -88.078125 C 26.503906 -88.847656 27.367188 -89.234375 27.796875 -89.234375 C 29.992188 -89.234375 31.6875 -88.929688 32.875 -88.328125 C 34.070312 -87.734375 34.671875 -86.492188 34.671875 -84.609375 Z M 72.53125 -37.625 C 72.570312 -36.8125 72.210938 -35.710938 71.453125 -34.328125 C 70.703125 -32.941406 69.679688 -31.367188 68.390625 -29.609375 C 67.109375 -27.859375 65.609375 -25.984375 63.890625 -23.984375 C 62.171875 -21.984375 60.367188 -19.976562 58.484375 -17.96875 C 56.328125 -15.65625 54.046875 -13.429688 51.640625 -11.296875 C 49.234375 -9.160156 46.660156 -7.085938 43.921875 -5.078125 C 38.523438 -1.078125 33.707031 0.921875 29.46875 0.921875 C 24.8125 0.921875 21.191406 -0.632812 18.609375 -3.75 C 16.023438 -6.914062 14.269531 -10.734375 13.34375 -15.203125 C 12.425781 -19.628906 11.96875 -24.191406 11.96875 -28.890625 C 11.96875 -30.859375 12.195312 -33.921875 12.65625 -38.078125 C 12.882812 -40.160156 13.113281 -41.953125 13.34375 -43.453125 C 13.582031 -44.960938 13.832031 -46.175781 14.09375 -47.09375 C 14.632812 -48.90625 15.773438 -50.488281 17.515625 -51.84375 C 19.285156 -53.269531 21.132812 -53.984375 23.0625 -53.984375 C 24.101562 -53.984375 24.625 -53 24.625 -51.03125 C 24.625 -49.71875 24.5 -48.234375 24.25 -46.578125 C 24 -44.921875 23.738281 -43.285156 23.46875 -41.671875 C 22.96875 -38.628906 22.597656 -35.898438 22.359375 -33.484375 C 22.128906 -31.078125 22.015625 -28.988281 22.015625 -27.21875 C 22.015625 -23.332031 22.554688 -19.40625 23.640625 -15.4375 C 24.710938 -11.382812 26.65625 -9.359375 29.46875 -9.359375 C 32.320312 -9.359375 35.640625 -10.398438 39.421875 -12.484375 C 41.304688 -13.554688 43.191406 -14.75 45.078125 -16.0625 C 46.960938 -17.375 48.847656 -18.835938 50.734375 -20.453125 C 52.660156 -22.078125 54.507812 -23.707031 56.28125 -25.34375 C 58.0625 -26.976562 59.796875 -28.664062 61.484375 -30.40625 C 63.179688 -32.132812 64.703125 -33.75 66.046875 -35.25 C 67.398438 -36.75 68.578125 -38.140625 69.578125 -39.421875 C 69.617188 -39.492188 69.6875 -39.613281 69.78125 -39.78125 C 69.875 -39.957031 69.976562 -40.132812 70.09375 -40.3125 C 70.21875 -40.488281 70.335938 -40.632812 70.453125 -40.75 C 70.566406 -40.863281 70.679688 -40.898438 70.796875 -40.859375 C 71.335938 -40.859375 71.742188 -40.4375 72.015625 -39.59375 C 72.359375 -38.78125 72.53125 -38.125 72.53125 -37.625 Z M 72.53125 -37.625 "/></g></g></g><g fill="#0693e3" fill-opacity="1"><g transform="translate(525.029255, 522.692978)"><g><path d="M 109.109375 -41.328125 C 109.109375 -40.585938 108.984375 -39.84375 108.734375 -39.09375 C 108.484375 -38.34375 108.175781 -37.59375 107.8125 -36.84375 C 107.445312 -36.09375 107.03125 -35.359375 106.5625 -34.640625 C 106.101562 -33.929688 105.660156 -33.25 105.234375 -32.59375 C 104.117188 -30.863281 102.8125 -29.101562 101.3125 -27.3125 C 99.8125 -25.519531 98.203125 -23.773438 96.484375 -22.078125 C 94.765625 -20.378906 93 -18.78125 91.1875 -17.28125 C 89.382812 -15.78125 87.613281 -14.453125 85.875 -13.296875 C 84.488281 -12.367188 83.171875 -11.5 81.921875 -10.6875 C 80.671875 -9.882812 79.410156 -9.191406 78.140625 -8.609375 C 76.867188 -8.035156 75.535156 -7.570312 74.140625 -7.21875 C 72.753906 -6.875 71.234375 -6.703125 69.578125 -6.703125 C 66.378906 -6.703125 63.78125 -7.507812 61.78125 -9.125 C 60.78125 -9.9375 59.90625 -10.988281 59.15625 -12.28125 C 58.40625 -13.570312 57.75 -15.003906 57.1875 -16.578125 C 56.625 -18.160156 56.140625 -19.835938 55.734375 -21.609375 C 55.335938 -23.378906 55.003906 -25.132812 54.734375 -26.875 C 54.378906 -29.03125 54.046875 -30.960938 53.734375 -32.671875 C 53.429688 -34.390625 53.078125 -35.835938 52.671875 -37.015625 C 52.273438 -38.191406 51.785156 -39.097656 51.203125 -39.734375 C 50.628906 -40.367188 49.878906 -40.6875 48.953125 -40.6875 C 48.222656 -40.6875 47.53125 -40.609375 46.875 -40.453125 C 46.21875 -40.296875 45.53125 -39.988281 44.8125 -39.53125 C 44.101562 -39.070312 43.320312 -38.414062 42.46875 -37.5625 C 41.625 -36.71875 40.632812 -35.597656 39.5 -34.203125 C 38.363281 -32.816406 37.0625 -31.125 35.59375 -29.125 C 34.132812 -27.125 32.421875 -24.738281 30.453125 -21.96875 C 29.492188 -20.613281 28.359375 -19.125 27.046875 -17.5 C 25.734375 -15.882812 24.394531 -14.34375 23.03125 -12.875 C 21.664062 -11.414062 20.328125 -10.128906 19.015625 -9.015625 C 17.703125 -7.898438 16.546875 -7.1875 15.546875 -6.875 C 12.148438 -7.601562 10.453125 -11.820312 10.453125 -19.53125 C 10.453125 -21.570312 10.6875 -24.675781 11.15625 -28.84375 C 11.382812 -30.726562 11.648438 -32.703125 11.953125 -34.765625 C 12.265625 -36.828125 12.648438 -38.882812 13.109375 -40.9375 C 13.578125 -43 14.109375 -45.003906 14.703125 -46.953125 C 15.304688 -48.898438 16.007812 -50.703125 16.8125 -52.359375 C 17.195312 -53.128906 17.601562 -53.734375 18.03125 -54.171875 C 18.457031 -54.617188 18.890625 -54.945312 19.328125 -55.15625 C 19.773438 -55.375 20.238281 -55.507812 20.71875 -55.5625 C 21.195312 -55.625 21.6875 -55.65625 22.1875 -55.65625 C 22.800781 -55.65625 23.347656 -55.226562 23.828125 -54.375 C 24.316406 -53.53125 24.5625 -52.359375 24.5625 -50.859375 C 24.5625 -49.929688 24.484375 -49.0625 24.328125 -48.25 C 24.171875 -47.445312 23.957031 -46.617188 23.6875 -45.765625 C 23.425781 -44.921875 23.140625 -44.003906 22.828125 -43.015625 C 22.515625 -42.035156 22.207031 -40.910156 21.90625 -39.640625 C 21.675781 -38.597656 21.414062 -37.441406 21.125 -36.171875 C 20.832031 -34.898438 20.5625 -33.609375 20.3125 -32.296875 C 20.0625 -30.992188 19.847656 -29.710938 19.671875 -28.453125 C 19.503906 -27.203125 19.421875 -26.078125 19.421875 -25.078125 C 19.421875 -24.390625 19.535156 -23.675781 19.765625 -22.9375 C 20.847656 -23.050781 22.617188 -24.671875 25.078125 -27.796875 C 26.347656 -29.378906 27.742188 -31.113281 29.265625 -33 C 30.796875 -34.882812 32.445312 -36.960938 34.21875 -39.234375 C 35.519531 -40.929688 36.816406 -42.507812 38.109375 -43.96875 C 39.398438 -45.4375 40.738281 -46.71875 42.125 -47.8125 C 43.519531 -48.914062 44.992188 -49.785156 46.546875 -50.421875 C 48.109375 -51.054688 49.832031 -51.375 51.71875 -51.375 C 53.726562 -51.375 55.394531 -50.941406 56.71875 -50.078125 C 58.050781 -49.210938 59.117188 -48.019531 59.921875 -46.5 C 60.734375 -44.976562 61.359375 -43.15625 61.796875 -41.03125 C 62.242188 -38.914062 62.601562 -36.585938 62.875 -34.046875 C 63.101562 -31.878906 63.320312 -29.738281 63.53125 -27.625 C 63.75 -25.507812 64.164062 -23.613281 64.78125 -21.9375 C 65.394531 -20.257812 66.28125 -18.898438 67.4375 -17.859375 C 68.59375 -16.816406 70.253906 -16.296875 72.421875 -16.296875 C 74.078125 -16.296875 75.804688 -16.679688 77.609375 -17.453125 C 79.421875 -18.222656 81.328125 -19.289062 83.328125 -20.65625 C 85.335938 -22.03125 87.410156 -23.640625 89.546875 -25.484375 C 91.679688 -27.335938 93.890625 -29.363281 96.171875 -31.5625 C 97.054688 -32.40625 98.023438 -33.472656 99.078125 -34.765625 C 100.140625 -36.054688 101.179688 -37.296875 102.203125 -38.484375 C 103.222656 -39.679688 104.175781 -40.703125 105.0625 -41.546875 C 105.945312 -42.398438 106.660156 -42.828125 107.203125 -42.828125 C 107.429688 -42.828125 107.804688 -42.707031 108.328125 -42.46875 C 108.847656 -42.238281 109.109375 -41.859375 109.109375 -41.328125 Z M 109.109375 -41.328125 "/></g></g></g><g fill="#0693e3" fill-opacity="1"><g transform="translate(614.776521, 522.692978)"><g><path d="M 80.625 -39.875 C 80.625 -39.300781 80.195312 -38.28125 79.34375 -36.8125 C 77.34375 -33.925781 75.097656 -31.035156 72.609375 -28.140625 C 70.128906 -25.253906 67.492188 -22.507812 64.703125 -19.90625 C 61.910156 -17.3125 59 -14.882812 55.96875 -12.625 C 52.945312 -10.375 49.894531 -8.425781 46.8125 -6.78125 C 43.726562 -5.144531 40.65625 -3.882812 37.59375 -3 C 34.53125 -2.113281 31.570312 -1.691406 28.71875 -1.734375 C 22.550781 -1.734375 17.765625 -3.523438 14.359375 -7.109375 C 10.953125 -10.691406 9.25 -16.101562 9.25 -23.34375 C 9.25 -29.394531 10.179688 -35.269531 12.046875 -40.96875 C 13.921875 -46.675781 17.109375 -52.171875 21.609375 -57.453125 C 22.460938 -58.367188 23.414062 -59.25 24.46875 -60.09375 C 25.53125 -60.945312 26.648438 -61.703125 27.828125 -62.359375 C 29.003906 -63.015625 30.21875 -63.535156 31.46875 -63.921875 C 32.71875 -64.304688 33.976562 -64.535156 35.25 -64.609375 C 35.5625 -64.609375 35.984375 -64.566406 36.515625 -64.484375 C 37.054688 -64.410156 37.632812 -64.273438 38.25 -64.078125 C 38.875 -63.890625 39.472656 -63.648438 40.046875 -63.359375 C 40.628906 -63.078125 41.09375 -62.722656 41.4375 -62.296875 C 42.519531 -61.066406 43.378906 -59.796875 44.015625 -58.484375 C 44.648438 -57.171875 45.003906 -55.726562 45.078125 -54.15625 C 45.148438 -52.382812 44.945312 -50.640625 44.46875 -48.921875 C 43.988281 -47.203125 43.179688 -45.445312 42.046875 -43.65625 C 40.910156 -41.863281 39.414062 -40.015625 37.5625 -38.109375 C 35.71875 -36.203125 33.484375 -34.148438 30.859375 -31.953125 C 29.203125 -30.566406 27.363281 -29.035156 25.34375 -27.359375 C 23.320312 -25.679688 20.882812 -23.921875 18.03125 -22.078125 C 18.03125 -18.335938 19.15625 -15.492188 21.40625 -13.546875 C 23.664062 -11.609375 26.757812 -10.640625 30.6875 -10.640625 C 32.882812 -10.640625 35.097656 -10.925781 37.328125 -11.5 C 39.566406 -12.082031 41.765625 -12.84375 43.921875 -13.78125 C 46.078125 -14.726562 48.164062 -15.804688 50.1875 -17.015625 C 52.21875 -18.234375 54.117188 -19.476562 55.890625 -20.75 C 59.160156 -23.132812 62.125 -25.507812 64.78125 -27.875 C 67.4375 -30.25 70.078125 -32.75 72.703125 -35.375 L 75.828125 -38.484375 C 77.710938 -40.140625 79.078125 -40.96875 79.921875 -40.96875 C 80.390625 -40.96875 80.625 -40.601562 80.625 -39.875 Z M 36.46875 -51.375 C 36.425781 -51.957031 36.335938 -52.523438 36.203125 -53.078125 C 36.066406 -53.640625 35.863281 -54.128906 35.59375 -54.546875 C 35.332031 -54.972656 35.023438 -55.3125 34.671875 -55.5625 C 34.328125 -55.8125 33.925781 -55.9375 33.46875 -55.9375 C 31.425781 -55.820312 29.378906 -54.578125 27.328125 -52.203125 C 25.285156 -49.835938 23.363281 -46.710938 21.5625 -42.828125 C 21.132812 -41.972656 20.753906 -41.015625 20.421875 -39.953125 C 20.097656 -38.898438 19.789062 -37.820312 19.5 -36.71875 C 19.21875 -35.625 18.96875 -34.535156 18.75 -33.453125 C 18.539062 -32.378906 18.359375 -31.421875 18.203125 -30.578125 C 20.203125 -32.078125 22.050781 -33.460938 23.75 -34.734375 C 25.445312 -36.003906 27.023438 -37.3125 28.484375 -38.65625 C 29.410156 -39.507812 30.351562 -40.425781 31.3125 -41.40625 C 32.28125 -42.382812 33.160156 -43.414062 33.953125 -44.5 C 34.742188 -45.582031 35.367188 -46.703125 35.828125 -47.859375 C 36.296875 -49.015625 36.507812 -50.1875 36.46875 -51.375 Z M 36.46875 -51.375 "/></g></g></g><g fill="#0693e3" fill-opacity="1"><g transform="translate(677.076533, 522.692978)"><g/></g></g></svg>