<svg xmlns="http://www.w3.org/2000/svg" xmlns:xlink="http://www.w3.org/1999/xlink" width="1080" zoomAndPan="magnify" viewBox="0 0 810 809.999993" height="1080" preserveAspectRatio="xMidYMid meet" version="1.0"><defs><g/></defs><g fill="#0693e3" fill-opacity="1"><g transform="translate(224.789055, 419.249999)"><g><path d="M 36.484375 -13.15625 C 36.484375 -12.78125 36.429688 -12.238281 36.328125 -11.53125 C 36.234375 -10.8125 36.160156 -10.394531 36.109375 -10.28125 C 35.890625 -9.425781 35.5 -8.492188 34.9375 -7.484375 C 34.382812 -6.484375 33.742188 -5.515625 33.015625 -4.578125 C 32.304688 -3.671875 31.585938 -2.859375 30.859375 -2.140625 C 30.140625 -1.429688 29.53125 -0.90625 29.03125 -0.5625 C 28.5 -0.1875 27.835938 0.179688 27.046875 0.546875 C 26.253906 0.921875 25.316406 1.269531 24.234375 1.59375 C 22.078125 2.269531 20.195312 2.609375 18.59375 2.609375 C 17.21875 2.609375 15.957031 2.363281 14.8125 1.875 C 13.65625 1.414062 13.078125 0.519531 13.078125 -0.8125 C 13.078125 -1.613281 13.285156 -2.195312 13.703125 -2.5625 C 14.128906 -2.9375 14.882812 -3.125 15.96875 -3.125 C 17.164062 -3.125 18.207031 -2.921875 19.09375 -2.515625 C 19.988281 -2.117188 20.757812 -1.921875 21.40625 -1.921875 C 21.757812 -1.921875 22.476562 -2.039062 23.5625 -2.28125 C 24.625 -2.550781 25.46875 -2.898438 26.09375 -3.328125 C 26.78125 -3.785156 27.492188 -4.378906 28.234375 -5.109375 C 28.972656 -5.835938 29.648438 -6.625 30.265625 -7.46875 C 30.878906 -8.3125 31.375 -9.164062 31.75 -10.03125 C 32.132812 -10.90625 32.316406 -11.726562 32.296875 -12.5 C 32.296875 -13.613281 31.851562 -14.601562 30.96875 -15.46875 C 30.082031 -16.351562 29.039062 -17.039062 27.84375 -17.53125 C 26.632812 -18.03125 25.601562 -18.28125 24.75 -18.28125 C 23.4375 -18.28125 22.4375 -18.179688 21.75 -17.984375 C 21.039062 -17.796875 20.367188 -17.550781 19.734375 -17.25 C 19.085938 -16.9375 18.535156 -16.78125 18.078125 -16.78125 C 17.554688 -16.78125 17.015625 -16.953125 16.453125 -17.296875 C 15.898438 -17.640625 15.625 -18.070312 15.625 -18.59375 C 15.625 -19.050781 15.691406 -19.445312 15.828125 -19.78125 C 15.960938 -20.125 16.144531 -20.410156 16.375 -20.640625 C 16.601562 -20.878906 16.863281 -21.066406 17.15625 -21.203125 C 17.457031 -21.347656 17.773438 -21.453125 18.109375 -21.515625 C 18.429688 -21.597656 18.78125 -21.664062 19.15625 -21.71875 C 19.539062 -21.78125 19.941406 -21.828125 20.359375 -21.859375 C 21.210938 -21.929688 21.734375 -22.015625 21.921875 -22.109375 C 23.046875 -22.765625 24.207031 -23.546875 25.40625 -24.453125 C 26.03125 -24.910156 26.609375 -25.378906 27.140625 -25.859375 C 27.671875 -26.347656 28.175781 -26.847656 28.65625 -27.359375 C 29.601562 -28.359375 30.078125 -29.175781 30.078125 -29.8125 C 30.078125 -30.675781 29.71875 -31.328125 29 -31.765625 C 28.28125 -32.210938 27.09375 -32.4375 25.4375 -32.4375 C 24.894531 -32.4375 24.3125 -32.410156 23.6875 -32.359375 C 23.0625 -32.316406 22.421875 -32.238281 21.765625 -32.125 C 21.109375 -32.019531 20.445312 -31.890625 19.78125 -31.734375 C 19.125 -31.585938 18.472656 -31.414062 17.828125 -31.21875 C 17.191406 -31.019531 16.578125 -30.796875 15.984375 -30.546875 C 15.398438 -30.304688 14.851562 -30.035156 14.34375 -29.734375 C 13.832031 -29.441406 13.378906 -29.125 12.984375 -28.78125 C 12.585938 -28.445312 12.269531 -28.101562 12.03125 -27.75 C 11.894531 -27.550781 11.796875 -27.21875 11.734375 -26.75 C 11.679688 -26.28125 11.628906 -25.535156 11.578125 -24.515625 C 11.566406 -24.015625 11.550781 -23.460938 11.53125 -22.859375 C 11.519531 -22.265625 11.5 -21.597656 11.46875 -20.859375 C 11.425781 -20.117188 11.394531 -19.484375 11.375 -18.953125 C 11.351562 -18.421875 11.328125 -17.96875 11.296875 -17.59375 C 11.253906 -17.28125 11.203125 -16.894531 11.140625 -16.4375 C 11.085938 -15.988281 11.023438 -15.460938 10.953125 -14.859375 C 10.785156 -13.671875 10.65625 -12.644531 10.5625 -11.78125 C 10.46875 -10.914062 10.421875 -10.097656 10.421875 -9.328125 C 10.421875 -9.054688 10.429688 -8.738281 10.453125 -8.375 C 10.472656 -8.007812 10.5 -7.585938 10.53125 -7.109375 C 10.5625 -6.628906 10.582031 -6.203125 10.59375 -5.828125 C 10.613281 -5.460938 10.625 -5.164062 10.625 -4.9375 C 10.625 -3.507812 10.4375 -2.460938 10.0625 -1.796875 C 9.6875 -1.140625 9.054688 -0.8125 8.171875 -0.8125 C 6.210938 -0.8125 5.234375 -2.476562 5.234375 -5.8125 C 5.234375 -6.195312 5.429688 -7.515625 5.828125 -9.765625 C 6.222656 -11.992188 6.445312 -13.390625 6.5 -13.953125 C 6.570312 -14.703125 6.632812 -15.410156 6.6875 -16.078125 C 6.75 -16.753906 6.816406 -17.394531 6.890625 -18 C 6.953125 -18.613281 7.023438 -19.328125 7.109375 -20.140625 C 7.191406 -20.960938 7.289062 -21.90625 7.40625 -22.96875 C 7.488281 -23.625 7.550781 -24.15625 7.59375 -24.5625 C 7.632812 -24.976562 7.65625 -25.269531 7.65625 -25.4375 C 7.65625 -25.832031 7.597656 -26.265625 7.484375 -26.734375 C 7.410156 -26.992188 7.363281 -27.21875 7.34375 -27.40625 C 7.320312 -27.601562 7.3125 -27.757812 7.3125 -27.875 C 7.3125 -29.082031 7.53125 -30.125 7.96875 -31 C 8.539062 -32.144531 9.007812 -32.722656 9.375 -32.734375 C 9.945312 -32.816406 10.484375 -32.921875 10.984375 -33.046875 C 11.492188 -33.171875 11.984375 -33.304688 12.453125 -33.453125 C 14.578125 -34.171875 16.257812 -34.734375 17.5 -35.140625 C 18.738281 -35.554688 19.546875 -35.820312 19.921875 -35.9375 C 20.679688 -36.1875 21.46875 -36.359375 22.28125 -36.453125 C 22.707031 -36.515625 23.21875 -36.554688 23.8125 -36.578125 C 24.40625 -36.609375 25.09375 -36.625 25.875 -36.625 L 27.25 -36.625 C 27.59375 -36.644531 28.046875 -36.5625 28.609375 -36.375 C 29.179688 -36.195312 29.757812 -35.957031 30.34375 -35.65625 C 30.925781 -35.363281 31.460938 -35.03125 31.953125 -34.65625 C 32.441406 -34.289062 32.785156 -33.921875 32.984375 -33.546875 C 33.210938 -33.203125 33.410156 -32.675781 33.578125 -31.96875 C 33.660156 -31.613281 33.722656 -31.289062 33.765625 -31 C 33.816406 -30.71875 33.84375 -30.460938 33.84375 -30.234375 C 33.84375 -28.898438 33.269531 -27.535156 32.125 -26.140625 C 30.988281 -24.753906 29.332031 -23.175781 27.15625 -21.40625 C 28.363281 -21.15625 29.53125 -20.753906 30.65625 -20.203125 C 31.78125 -19.648438 32.769531 -19 33.625 -18.25 C 34.488281 -17.507812 35.179688 -16.703125 35.703125 -15.828125 C 36.222656 -14.953125 36.484375 -14.0625 36.484375 -13.15625 Z M 36.484375 -13.15625 "/></g></g></g><g fill="#0693e3" fill-opacity="1"><g transform="translate(262.810377, 419.249999)"><g><path d="M 14.765625 -36.015625 C 14.765625 -34.941406 14.484375 -34.03125 13.921875 -33.28125 C 13.378906 -32.53125 12.582031 -32.15625 11.53125 -32.15625 C 10.875 -32.15625 10.144531 -32.25 9.34375 -32.4375 C 8.5625 -32.632812 8.171875 -32.957031 8.171875 -33.40625 C 8.171875 -34.207031 8.421875 -34.972656 8.921875 -35.703125 C 9.421875 -36.429688 10.019531 -37.023438 10.71875 -37.484375 C 11.28125 -37.816406 11.648438 -37.984375 11.828125 -37.984375 C 12.765625 -37.984375 13.488281 -37.851562 14 -37.59375 C 14.507812 -37.34375 14.765625 -36.816406 14.765625 -36.015625 Z M 30.875 -16.015625 C 30.882812 -15.671875 30.726562 -15.203125 30.40625 -14.609375 C 30.09375 -14.015625 29.660156 -13.34375 29.109375 -12.59375 C 28.554688 -11.851562 27.914062 -11.054688 27.1875 -10.203125 C 26.457031 -9.347656 25.691406 -8.5 24.890625 -7.65625 C 23.972656 -6.664062 23 -5.710938 21.96875 -4.796875 C 20.945312 -3.890625 19.851562 -3.015625 18.6875 -2.171875 C 16.394531 -0.460938 14.347656 0.390625 12.546875 0.390625 C 10.554688 0.390625 9.015625 -0.269531 7.921875 -1.59375 C 6.816406 -2.9375 6.070312 -4.5625 5.6875 -6.46875 C 5.289062 -8.351562 5.09375 -10.296875 5.09375 -12.296875 C 5.09375 -13.128906 5.191406 -14.429688 5.390625 -16.203125 C 5.484375 -17.085938 5.578125 -17.847656 5.671875 -18.484375 C 5.773438 -19.128906 5.882812 -19.648438 6 -20.046875 C 6.226562 -20.816406 6.710938 -21.488281 7.453125 -22.0625 C 8.203125 -22.664062 8.988281 -22.96875 9.8125 -22.96875 C 10.257812 -22.96875 10.484375 -22.550781 10.484375 -21.71875 C 10.484375 -21.164062 10.425781 -20.535156 10.3125 -19.828125 C 10.207031 -19.117188 10.097656 -18.421875 9.984375 -17.734375 C 9.773438 -16.441406 9.617188 -15.28125 9.515625 -14.25 C 9.421875 -13.226562 9.375 -12.335938 9.375 -11.578125 C 9.375 -9.921875 9.601562 -8.25 10.0625 -6.5625 C 10.519531 -4.84375 11.347656 -3.984375 12.546875 -3.984375 C 13.753906 -3.984375 15.164062 -4.425781 16.78125 -5.3125 C 17.582031 -5.769531 18.382812 -6.273438 19.1875 -6.828125 C 19.988281 -7.390625 20.789062 -8.015625 21.59375 -8.703125 C 22.414062 -9.390625 23.203125 -10.082031 23.953125 -10.78125 C 24.710938 -11.476562 25.453125 -12.195312 26.171875 -12.9375 C 26.890625 -13.675781 27.535156 -14.363281 28.109375 -15 C 28.679688 -15.644531 29.179688 -16.238281 29.609375 -16.78125 C 29.628906 -16.8125 29.660156 -16.863281 29.703125 -16.9375 C 29.742188 -17.007812 29.785156 -17.082031 29.828125 -17.15625 C 29.878906 -17.226562 29.929688 -17.289062 29.984375 -17.34375 C 30.035156 -17.394531 30.082031 -17.410156 30.125 -17.390625 C 30.351562 -17.390625 30.523438 -17.207031 30.640625 -16.84375 C 30.796875 -16.5 30.875 -16.222656 30.875 -16.015625 Z M 30.875 -16.015625 "/></g></g></g><g fill="#0693e3" fill-opacity="1"><g transform="translate(286.272435, 419.249999)"><g><path d="M 28.53125 -14.90625 C 28.53125 -14.132812 28.0625 -12.929688 27.125 -11.296875 C 26.945312 -10.984375 26.695312 -10.609375 26.375 -10.171875 C 26.0625 -9.734375 25.707031 -9.28125 25.3125 -8.8125 C 24.914062 -8.34375 24.503906 -7.867188 24.078125 -7.390625 C 23.648438 -6.910156 23.234375 -6.460938 22.828125 -6.046875 C 22.203125 -5.421875 21.515625 -4.8125 20.765625 -4.21875 C 20.023438 -3.632812 19.238281 -3.101562 18.40625 -2.625 C 17.582031 -2.15625 16.726562 -1.773438 15.84375 -1.484375 C 14.96875 -1.203125 14.109375 -1.0625 13.265625 -1.0625 C 12.128906 -1.0625 11.066406 -1.265625 10.078125 -1.671875 C 9.097656 -2.078125 8.242188 -2.707031 7.515625 -3.5625 C 6.785156 -4.414062 6.210938 -5.484375 5.796875 -6.765625 C 5.378906 -8.054688 5.171875 -9.582031 5.171875 -11.34375 C 5.171875 -12.539062 5.226562 -13.789062 5.34375 -15.09375 C 5.457031 -16.394531 5.601562 -17.703125 5.78125 -19.015625 C 5.957031 -20.328125 6.15625 -21.625 6.375 -22.90625 C 6.601562 -24.195312 6.832031 -25.441406 7.0625 -26.640625 C 7.207031 -27.460938 7.332031 -28.132812 7.4375 -28.65625 C 7.539062 -29.175781 7.632812 -29.65625 7.71875 -30.09375 C 7.800781 -30.539062 7.875 -30.988281 7.9375 -31.4375 C 8.007812 -31.894531 8.09375 -32.457031 8.1875 -33.125 C 8.257812 -33.59375 8.320312 -34 8.375 -34.34375 C 8.4375 -34.695312 8.484375 -34.988281 8.515625 -35.21875 C 8.578125 -35.613281 8.6875 -35.988281 8.84375 -36.34375 C 9 -36.707031 9.195312 -37.03125 9.4375 -37.3125 C 9.675781 -37.59375 9.945312 -37.8125 10.25 -37.96875 C 10.5625 -38.132812 10.910156 -38.21875 11.296875 -38.21875 C 12.078125 -38.21875 12.65625 -37.847656 13.03125 -37.109375 C 12.9375 -36.609375 12.832031 -36.125 12.71875 -35.65625 C 12.613281 -35.1875 12.523438 -34.691406 12.453125 -34.171875 C 12.035156 -32.097656 11.695312 -30.421875 11.4375 -29.140625 C 11.175781 -27.867188 10.988281 -26.96875 10.875 -26.4375 C 10.675781 -25.40625 10.460938 -24.289062 10.234375 -23.09375 C 10.015625 -21.894531 9.8125 -20.671875 9.625 -19.421875 C 9.4375 -18.179688 9.285156 -16.953125 9.171875 -15.734375 C 9.054688 -14.523438 9 -13.394531 9 -12.34375 C 9 -11.21875 9.085938 -10.191406 9.265625 -9.265625 C 9.453125 -8.335938 9.742188 -7.546875 10.140625 -6.890625 C 10.546875 -6.234375 11.0625 -5.722656 11.6875 -5.359375 C 12.320312 -5.003906 13.09375 -4.828125 14 -4.828125 C 14.976562 -4.828125 15.941406 -5.039062 16.890625 -5.46875 C 17.847656 -5.90625 18.765625 -6.457031 19.640625 -7.125 C 20.515625 -7.800781 21.34375 -8.546875 22.125 -9.359375 C 22.914062 -10.171875 23.640625 -10.953125 24.296875 -11.703125 C 24.828125 -12.328125 25.285156 -12.863281 25.671875 -13.3125 C 26.066406 -13.769531 26.394531 -14.15625 26.65625 -14.46875 C 26.875 -14.707031 27.117188 -14.957031 27.390625 -15.21875 C 27.660156 -15.488281 27.910156 -15.625 28.140625 -15.625 C 28.398438 -15.625 28.53125 -15.382812 28.53125 -14.90625 Z M 28.53125 -14.90625 "/></g></g></g><g fill="#0693e3" fill-opacity="1"><g transform="translate(308.627791, 419.249999)"><g><path d="M 34.3125 -16.96875 C 34.3125 -16.726562 34.128906 -16.296875 33.765625 -15.671875 C 32.921875 -14.441406 31.96875 -13.210938 30.90625 -11.984375 C 29.84375 -10.753906 28.71875 -9.582031 27.53125 -8.46875 C 26.34375 -7.363281 25.101562 -6.332031 23.8125 -5.375 C 22.53125 -4.414062 21.234375 -3.585938 19.921875 -2.890625 C 18.609375 -2.191406 17.300781 -1.65625 16 -1.28125 C 14.695312 -0.90625 13.4375 -0.722656 12.21875 -0.734375 C 9.601562 -0.734375 7.566406 -1.492188 6.109375 -3.015625 C 4.660156 -4.546875 3.9375 -6.851562 3.9375 -9.9375 C 3.9375 -12.507812 4.332031 -15.007812 5.125 -17.4375 C 5.925781 -19.863281 7.285156 -22.203125 9.203125 -24.453125 C 9.554688 -24.847656 9.957031 -25.222656 10.40625 -25.578125 C 10.863281 -25.941406 11.34375 -26.257812 11.84375 -26.53125 C 12.34375 -26.8125 12.859375 -27.035156 13.390625 -27.203125 C 13.921875 -27.367188 14.457031 -27.46875 15 -27.5 C 15.132812 -27.5 15.316406 -27.484375 15.546875 -27.453125 C 15.773438 -27.421875 16.019531 -27.363281 16.28125 -27.28125 C 16.539062 -27.195312 16.796875 -27.09375 17.046875 -26.96875 C 17.296875 -26.84375 17.492188 -26.691406 17.640625 -26.515625 C 18.097656 -25.992188 18.460938 -25.453125 18.734375 -24.890625 C 19.003906 -24.335938 19.15625 -23.722656 19.1875 -23.046875 C 19.21875 -22.296875 19.128906 -21.554688 18.921875 -20.828125 C 18.722656 -20.097656 18.378906 -19.347656 17.890625 -18.578125 C 17.410156 -17.816406 16.773438 -17.03125 15.984375 -16.21875 C 15.203125 -15.40625 14.253906 -14.535156 13.140625 -13.609375 C 12.429688 -13.015625 11.644531 -12.359375 10.78125 -11.640625 C 9.925781 -10.929688 8.890625 -10.179688 7.671875 -9.390625 C 7.671875 -7.804688 8.148438 -6.597656 9.109375 -5.765625 C 10.066406 -4.941406 11.382812 -4.53125 13.0625 -4.53125 C 14 -4.53125 14.941406 -4.648438 15.890625 -4.890625 C 16.835938 -5.140625 17.769531 -5.460938 18.6875 -5.859375 C 19.613281 -6.265625 20.503906 -6.722656 21.359375 -7.234375 C 22.222656 -7.753906 23.03125 -8.285156 23.78125 -8.828125 C 25.175781 -9.847656 26.4375 -10.859375 27.5625 -11.859375 C 28.695312 -12.867188 29.820312 -13.929688 30.9375 -15.046875 L 32.265625 -16.375 C 33.078125 -17.082031 33.660156 -17.4375 34.015625 -17.4375 C 34.210938 -17.4375 34.3125 -17.28125 34.3125 -16.96875 Z M 15.515625 -21.859375 C 15.503906 -22.109375 15.46875 -22.351562 15.40625 -22.59375 C 15.351562 -22.832031 15.269531 -23.039062 15.15625 -23.21875 C 15.039062 -23.394531 14.90625 -23.535156 14.75 -23.640625 C 14.601562 -23.753906 14.429688 -23.8125 14.234375 -23.8125 C 13.367188 -23.757812 12.5 -23.226562 11.625 -22.21875 C 10.757812 -21.207031 9.941406 -19.875 9.171875 -18.21875 C 8.992188 -17.863281 8.832031 -17.457031 8.6875 -17 C 8.550781 -16.550781 8.421875 -16.09375 8.296875 -15.625 C 8.171875 -15.164062 8.0625 -14.703125 7.96875 -14.234375 C 7.882812 -13.773438 7.8125 -13.367188 7.75 -13.015625 C 8.601562 -13.648438 9.390625 -14.238281 10.109375 -14.78125 C 10.828125 -15.320312 11.5 -15.878906 12.125 -16.453125 C 12.519531 -16.816406 12.921875 -17.207031 13.328125 -17.625 C 13.742188 -18.039062 14.117188 -18.476562 14.453125 -18.9375 C 14.785156 -19.394531 15.050781 -19.867188 15.25 -20.359375 C 15.445312 -20.859375 15.535156 -21.359375 15.515625 -21.859375 Z M 15.515625 -21.859375 "/></g></g></g><g fill="#0693e3" fill-opacity="1"><g transform="translate(335.139425, 419.249999)"><g><path d="M 28.53125 -14.90625 C 28.53125 -14.132812 28.0625 -12.929688 27.125 -11.296875 C 26.945312 -10.984375 26.695312 -10.609375 26.375 -10.171875 C 26.0625 -9.734375 25.707031 -9.28125 25.3125 -8.8125 C 24.914062 -8.34375 24.503906 -7.867188 24.078125 -7.390625 C 23.648438 -6.910156 23.234375 -6.460938 22.828125 -6.046875 C 22.203125 -5.421875 21.515625 -4.8125 20.765625 -4.21875 C 20.023438 -3.632812 19.238281 -3.101562 18.40625 -2.625 C 17.582031 -2.15625 16.726562 -1.773438 15.84375 -1.484375 C 14.96875 -1.203125 14.109375 -1.0625 13.265625 -1.0625 C 12.128906 -1.0625 11.066406 -1.265625 10.078125 -1.671875 C 9.097656 -2.078125 8.242188 -2.707031 7.515625 -3.5625 C 6.785156 -4.414062 6.210938 -5.484375 5.796875 -6.765625 C 5.378906 -8.054688 5.171875 -9.582031 5.171875 -11.34375 C 5.171875 -12.539062 5.226562 -13.789062 5.34375 -15.09375 C 5.457031 -16.394531 5.601562 -17.703125 5.78125 -19.015625 C 5.957031 -20.328125 6.15625 -21.625 6.375 -22.90625 C 6.601562 -24.195312 6.832031 -25.441406 7.0625 -26.640625 C 7.207031 -27.460938 7.332031 -28.132812 7.4375 -28.65625 C 7.539062 -29.175781 7.632812 -29.65625 7.71875 -30.09375 C 7.800781 -30.539062 7.875 -30.988281 7.9375 -31.4375 C 8.007812 -31.894531 8.09375 -32.457031 8.1875 -33.125 C 8.257812 -33.59375 8.320312 -34 8.375 -34.34375 C 8.4375 -34.695312 8.484375 -34.988281 8.515625 -35.21875 C 8.578125 -35.613281 8.6875 -35.988281 8.84375 -36.34375 C 9 -36.707031 9.195312 -37.03125 9.4375 -37.3125 C 9.675781 -37.59375 9.945312 -37.8125 10.25 -37.96875 C 10.5625 -38.132812 10.910156 -38.21875 11.296875 -38.21875 C 12.078125 -38.21875 12.65625 -37.847656 13.03125 -37.109375 C 12.9375 -36.609375 12.832031 -36.125 12.71875 -35.65625 C 12.613281 -35.1875 12.523438 -34.691406 12.453125 -34.171875 C 12.035156 -32.097656 11.695312 -30.421875 11.4375 -29.140625 C 11.175781 -27.867188 10.988281 -26.96875 10.875 -26.4375 C 10.675781 -25.40625 10.460938 -24.289062 10.234375 -23.09375 C 10.015625 -21.894531 9.8125 -20.671875 9.625 -19.421875 C 9.4375 -18.179688 9.285156 -16.953125 9.171875 -15.734375 C 9.054688 -14.523438 9 -13.394531 9 -12.34375 C 9 -11.21875 9.085938 -10.191406 9.265625 -9.265625 C 9.453125 -8.335938 9.742188 -7.546875 10.140625 -6.890625 C 10.546875 -6.234375 11.0625 -5.722656 11.6875 -5.359375 C 12.320312 -5.003906 13.09375 -4.828125 14 -4.828125 C 14.976562 -4.828125 15.941406 -5.039062 16.890625 -5.46875 C 17.847656 -5.90625 18.765625 -6.457031 19.640625 -7.125 C 20.515625 -7.800781 21.34375 -8.546875 22.125 -9.359375 C 22.914062 -10.171875 23.640625 -10.953125 24.296875 -11.703125 C 24.828125 -12.328125 25.285156 -12.863281 25.671875 -13.3125 C 26.066406 -13.769531 26.394531 -14.15625 26.65625 -14.46875 C 26.875 -14.707031 27.117188 -14.957031 27.390625 -15.21875 C 27.660156 -15.488281 27.910156 -15.625 28.140625 -15.625 C 28.398438 -15.625 28.53125 -15.382812 28.53125 -14.90625 Z M 28.53125 -14.90625 "/></g></g></g><g fill="#0693e3" fill-opacity="1"><g transform="translate(357.494782, 419.249999)"><g/></g></g><g fill="#0693e3" fill-opacity="1"><g transform="translate(377.636737, 419.249999)"><g><path d="M 39.75 -33.84375 C 39.75 -33.101562 39.546875 -32.472656 39.140625 -31.953125 C 38.742188 -31.441406 38.175781 -31.1875 37.4375 -31.1875 C 37.15625 -31.1875 36.847656 -31.3125 36.515625 -31.5625 C 36.179688 -31.820312 35.875 -32.078125 35.59375 -32.328125 C 35.332031 -32.585938 35.03125 -32.8125 34.6875 -33 C 34.34375 -33.195312 33.960938 -33.296875 33.546875 -33.296875 C 31.535156 -33.296875 28.9375 -32.625 25.75 -31.28125 C 24.164062 -30.59375 22.679688 -29.8125 21.296875 -28.9375 C 19.921875 -28.0625 18.570312 -27.070312 17.25 -25.96875 C 15.914062 -24.875 14.65625 -23.65625 13.46875 -22.3125 C 12.28125 -20.976562 11.234375 -19.648438 10.328125 -18.328125 C 9.492188 -17.128906 8.835938 -15.675781 8.359375 -13.96875 C 7.921875 -12.300781 7.703125 -10.671875 7.703125 -9.078125 C 7.703125 -8.316406 8.085938 -7.53125 8.859375 -6.71875 C 9.628906 -5.925781 10.421875 -5.414062 11.234375 -5.1875 C 12.234375 -4.925781 13.425781 -4.796875 14.8125 -4.796875 C 15.84375 -4.773438 16.945312 -4.898438 18.125 -5.171875 C 19.3125 -5.441406 20.492188 -5.8125 21.671875 -6.28125 C 22.847656 -6.75 23.992188 -7.28125 25.109375 -7.875 C 26.222656 -8.476562 27.238281 -9.109375 28.15625 -9.765625 C 28.488281 -10.023438 28.835938 -10.332031 29.203125 -10.6875 C 29.578125 -11.039062 29.953125 -11.453125 30.328125 -11.921875 C 30.722656 -12.398438 31.054688 -12.84375 31.328125 -13.25 C 31.597656 -13.664062 31.8125 -14.050781 31.96875 -14.40625 C 32.09375 -14.570312 32.15625 -14.785156 32.15625 -15.046875 C 32.15625 -15.296875 32.097656 -15.601562 31.984375 -15.96875 C 31.878906 -16.34375 31.828125 -16.644531 31.828125 -16.875 C 31.828125 -17.476562 32.566406 -17.78125 34.046875 -17.78125 C 34.503906 -17.78125 35.191406 -17.4375 36.109375 -16.75 C 37.023438 -16.0625 37.484375 -15.53125 37.484375 -15.15625 C 37.484375 -15.101562 36.976562 -14.0625 35.96875 -12.03125 C 35.457031 -11.007812 35.066406 -10.21875 34.796875 -9.65625 C 34.523438 -9.101562 34.363281 -8.769531 34.3125 -8.65625 C 34.03125 -8.019531 33.75 -7.300781 33.46875 -6.5 C 33.195312 -5.707031 32.921875 -4.828125 32.640625 -3.859375 C 32.066406 -1.910156 31.78125 -0.523438 31.78125 0.296875 C 31.75 0.472656 31.769531 0.644531 31.84375 0.8125 C 31.914062 0.988281 31.992188 1.144531 32.078125 1.28125 C 32.171875 1.425781 32.265625 1.550781 32.359375 1.65625 C 32.453125 1.757812 32.5 1.832031 32.5 1.875 C 32.5 2.257812 32.425781 2.617188 32.28125 2.953125 C 32.144531 3.296875 31.957031 3.59375 31.71875 3.84375 C 31.476562 4.101562 31.191406 4.304688 30.859375 4.453125 C 30.523438 4.597656 30.160156 4.671875 29.765625 4.671875 C 28.910156 4.671875 28.332031 4.378906 28.03125 3.796875 C 27.738281 3.210938 27.59375 2.429688 27.59375 1.453125 C 27.59375 1.191406 27.601562 0.9375 27.625 0.6875 C 27.65625 0.4375 27.6875 0.191406 27.71875 -0.046875 C 27.820312 -0.554688 27.945312 -1.125 28.09375 -1.75 C 28.175781 -2.0625 28.25 -2.332031 28.3125 -2.5625 C 28.375 -2.800781 28.421875 -3.003906 28.453125 -3.171875 C 28.679688 -4.085938 28.796875 -4.710938 28.796875 -5.046875 C 28.796875 -5.203125 28.765625 -5.28125 28.703125 -5.28125 C 28.359375 -5.28125 27.285156 -4.832031 25.484375 -3.9375 C 24.566406 -3.488281 23.832031 -3.132812 23.28125 -2.875 C 22.726562 -2.613281 22.351562 -2.441406 22.15625 -2.359375 C 19.300781 -1.191406 16.613281 -0.609375 14.09375 -0.609375 C 12.46875 -0.609375 10.753906 -0.9375 8.953125 -1.59375 C 7.117188 -2.269531 5.578125 -3.234375 4.328125 -4.484375 C 3.078125 -5.742188 2.453125 -7.203125 2.453125 -8.859375 C 2.453125 -13.710938 4.691406 -18.738281 9.171875 -23.9375 C 11.140625 -26.21875 13.0625 -28.144531 14.9375 -29.71875 C 16.769531 -31.238281 19.015625 -32.679688 21.671875 -34.046875 C 22.097656 -34.273438 22.582031 -34.503906 23.125 -34.734375 C 23.664062 -34.972656 24.265625 -35.21875 24.921875 -35.46875 C 26.242188 -35.976562 27.5625 -36.421875 28.875 -36.796875 C 30.1875 -37.171875 31.410156 -37.429688 32.546875 -37.578125 C 33.242188 -37.679688 34.300781 -37.734375 35.71875 -37.734375 C 36.226562 -37.742188 36.726562 -37.644531 37.21875 -37.4375 C 37.707031 -37.238281 38.140625 -36.953125 38.515625 -36.578125 C 38.890625 -36.210938 39.191406 -35.789062 39.421875 -35.3125 C 39.660156 -34.84375 39.769531 -34.351562 39.75 -33.84375 Z M 39.75 -33.84375 "/></g></g></g><g fill="#0693e3" fill-opacity="1"><g transform="translate(418.092801, 419.249999)"><g><path d="M 27.75 -19.84375 C 27.75 -19.75 27.738281 -19.609375 27.71875 -19.421875 C 27.707031 -19.234375 27.664062 -19.046875 27.59375 -18.859375 C 27.53125 -18.671875 27.453125 -18.5 27.359375 -18.34375 C 27.273438 -18.195312 27.15625 -18.125 27 -18.125 C 26.90625 -18.125 26.742188 -18.128906 26.515625 -18.140625 C 26.285156 -18.148438 26.039062 -18.160156 25.78125 -18.171875 C 25.53125 -18.191406 25.289062 -18.203125 25.0625 -18.203125 C 24.832031 -18.210938 24.671875 -18.21875 24.578125 -18.21875 C 21.441406 -18.03125 18.832031 -16.882812 16.75 -14.78125 C 14.695312 -12.726562 12.925781 -9.988281 11.4375 -6.5625 C 11.15625 -5.863281 10.878906 -5.132812 10.609375 -4.375 C 10.335938 -3.625 10.082031 -2.832031 9.84375 -2 C 9.707031 -1.53125 9.609375 -1.117188 9.546875 -0.765625 C 9.492188 -0.421875 9.398438 -0.0507812 9.265625 0.34375 C 9.234375 0.476562 9.09375 0.601562 8.84375 0.71875 C 8.601562 0.84375 8.332031 0.953125 8.03125 1.046875 C 7.726562 1.148438 7.4375 1.234375 7.15625 1.296875 C 6.875 1.367188 6.6875 1.40625 6.59375 1.40625 C 5.457031 1.46875 4.816406 0.296875 4.671875 -2.109375 C 4.617188 -2.765625 4.597656 -3.359375 4.609375 -3.890625 C 4.617188 -4.429688 4.640625 -4.953125 4.671875 -5.453125 C 4.703125 -5.953125 4.742188 -6.472656 4.796875 -7.015625 C 4.859375 -7.566406 4.925781 -8.1875 5 -8.875 C 5.070312 -9.726562 5.164062 -10.710938 5.28125 -11.828125 C 5.394531 -12.941406 5.523438 -14.0625 5.671875 -15.1875 C 5.828125 -16.320312 5.984375 -17.398438 6.140625 -18.421875 C 6.304688 -19.453125 6.484375 -20.304688 6.671875 -20.984375 C 6.847656 -21.753906 7.09375 -22.328125 7.40625 -22.703125 C 7.726562 -23.078125 8.203125 -23.28125 8.828125 -23.3125 C 8.992188 -23.3125 9.171875 -23.265625 9.359375 -23.171875 C 9.546875 -23.085938 9.71875 -22.972656 9.875 -22.828125 C 10.03125 -22.679688 10.160156 -22.523438 10.265625 -22.359375 C 10.367188 -22.191406 10.429688 -22.046875 10.453125 -21.921875 C 10.472656 -21.503906 10.460938 -21.050781 10.421875 -20.5625 C 10.390625 -20.082031 10.332031 -19.582031 10.25 -19.0625 C 10.175781 -18.550781 10.082031 -18.03125 9.96875 -17.5 C 9.851562 -16.976562 9.738281 -16.484375 9.625 -16.015625 C 9.382812 -15.078125 9.203125 -14.273438 9.078125 -13.609375 C 8.960938 -12.953125 8.863281 -12.3125 8.78125 -11.6875 C 8.695312 -11.0625 8.613281 -10.390625 8.53125 -9.671875 C 8.445312 -8.960938 8.34375 -8.082031 8.21875 -7.03125 C 8.5 -7.65625 8.738281 -8.1875 8.9375 -8.625 C 9.144531 -9.070312 9.328125 -9.460938 9.484375 -9.796875 C 9.648438 -10.140625 9.800781 -10.441406 9.9375 -10.703125 C 10.082031 -10.960938 10.238281 -11.234375 10.40625 -11.515625 C 10.570312 -11.804688 10.75 -12.125 10.9375 -12.46875 C 11.132812 -12.8125 11.382812 -13.226562 11.6875 -13.71875 C 12.832031 -15.625 14.0625 -17.175781 15.375 -18.375 C 16.6875 -19.582031 17.945312 -20.453125 19.15625 -20.984375 C 20.539062 -21.640625 21.675781 -21.992188 22.5625 -22.046875 C 22.976562 -22.054688 23.484375 -22.023438 24.078125 -21.953125 C 24.671875 -21.890625 25.238281 -21.769531 25.78125 -21.59375 C 26.320312 -21.414062 26.785156 -21.179688 27.171875 -20.890625 C 27.554688 -20.609375 27.75 -20.257812 27.75 -19.84375 Z M 27.75 -19.84375 "/></g></g></g><g fill="#0693e3" fill-opacity="1"><g transform="translate(443.866634, 419.249999)"><g><path d="M 40.578125 -16.75 C 40.578125 -16.550781 40.550781 -16.316406 40.5 -16.046875 C 40.457031 -15.773438 40.390625 -15.5 40.296875 -15.21875 C 40.210938 -14.945312 40.113281 -14.679688 40 -14.421875 C 39.894531 -14.171875 39.785156 -13.972656 39.671875 -13.828125 C 39.578125 -13.691406 39.4375 -13.515625 39.25 -13.296875 C 39.0625 -13.078125 38.847656 -12.832031 38.609375 -12.5625 C 38.378906 -12.300781 38.128906 -12.023438 37.859375 -11.734375 C 37.597656 -11.453125 37.316406 -11.179688 37.015625 -10.921875 C 36.003906 -9.984375 35.007812 -9.078125 34.03125 -8.203125 C 33.050781 -7.328125 32.046875 -6.550781 31.015625 -5.875 C 29.984375 -5.207031 28.90625 -4.671875 27.78125 -4.265625 C 26.65625 -3.867188 25.4375 -3.675781 24.125 -3.6875 C 23.519531 -3.6875 22.910156 -3.796875 22.296875 -4.015625 C 21.679688 -4.242188 21.101562 -4.5625 20.5625 -4.96875 C 20.019531 -5.375 19.550781 -5.863281 19.15625 -6.4375 C 18.769531 -7.019531 18.492188 -7.65625 18.328125 -8.34375 C 17.847656 -7.84375 17.34375 -7.328125 16.8125 -6.796875 C 16.289062 -6.265625 15.75 -5.726562 15.1875 -5.1875 C 14.625 -4.644531 14.035156 -4.117188 13.421875 -3.609375 C 12.816406 -3.109375 12.195312 -2.644531 11.5625 -2.21875 C 11.195312 -1.988281 10.765625 -1.738281 10.265625 -1.46875 C 9.765625 -1.207031 9.238281 -0.96875 8.6875 -0.75 C 8.144531 -0.53125 7.597656 -0.347656 7.046875 -0.203125 C 6.492188 -0.0664062 6 0 5.5625 0 C 4.882812 0 4.300781 -0.207031 3.8125 -0.625 C 3.332031 -1.039062 2.929688 -1.550781 2.609375 -2.15625 C 2.296875 -2.769531 2.0625 -3.421875 1.90625 -4.109375 C 1.75 -4.796875 1.671875 -5.410156 1.671875 -5.953125 C 1.671875 -7.035156 1.828125 -8.140625 2.140625 -9.265625 C 2.453125 -10.398438 2.859375 -11.503906 3.359375 -12.578125 C 3.859375 -13.648438 4.414062 -14.671875 5.03125 -15.640625 C 5.644531 -16.609375 6.25 -17.46875 6.84375 -18.21875 C 7.457031 -19.007812 8.191406 -19.796875 9.046875 -20.578125 C 9.898438 -21.359375 10.785156 -22.054688 11.703125 -22.671875 C 12.617188 -23.285156 13.519531 -23.78125 14.40625 -24.15625 C 15.300781 -24.53125 16.09375 -24.71875 16.78125 -24.71875 C 17.125 -24.71875 17.488281 -24.71875 17.875 -24.71875 C 18.257812 -24.71875 18.640625 -24.695312 19.015625 -24.65625 C 19.390625 -24.613281 19.753906 -24.546875 20.109375 -24.453125 C 20.472656 -24.367188 20.804688 -24.238281 21.109375 -24.0625 C 21.253906 -23.957031 21.425781 -23.765625 21.625 -23.484375 C 21.820312 -23.210938 22.003906 -22.90625 22.171875 -22.5625 C 22.347656 -22.21875 22.492188 -21.867188 22.609375 -21.515625 C 22.722656 -21.171875 22.78125 -20.898438 22.78125 -20.703125 C 22.78125 -20.171875 22.65625 -19.453125 22.40625 -18.546875 C 22.144531 -17.410156 21.898438 -16.378906 21.671875 -15.453125 C 21.453125 -14.523438 21.34375 -13.570312 21.34375 -12.59375 C 21.34375 -12.03125 21.429688 -11.457031 21.609375 -10.875 C 21.796875 -10.300781 22.054688 -9.773438 22.390625 -9.296875 C 22.734375 -8.816406 23.144531 -8.425781 23.625 -8.125 C 24.101562 -7.820312 24.648438 -7.671875 25.265625 -7.671875 C 26.265625 -7.671875 27.285156 -7.878906 28.328125 -8.296875 C 29.378906 -8.710938 30.441406 -9.285156 31.515625 -10.015625 C 32.585938 -10.753906 33.65625 -11.601562 34.71875 -12.5625 C 35.789062 -13.519531 36.84375 -14.539062 37.875 -15.625 C 37.957031 -15.71875 38.101562 -15.882812 38.3125 -16.125 C 38.519531 -16.363281 38.734375 -16.597656 38.953125 -16.828125 C 39.171875 -17.066406 39.382812 -17.28125 39.59375 -17.46875 C 39.8125 -17.664062 39.96875 -17.765625 40.0625 -17.765625 C 40.40625 -17.765625 40.578125 -17.425781 40.578125 -16.75 Z M 18.6875 -18.796875 C 18.6875 -19.066406 18.671875 -19.40625 18.640625 -19.8125 C 18.609375 -20.226562 18.503906 -20.566406 18.328125 -20.828125 C 18.140625 -21.097656 17.914062 -21.226562 17.65625 -21.21875 C 17.394531 -21.207031 17.132812 -21.203125 16.875 -21.203125 C 16.300781 -21.203125 15.742188 -21.109375 15.203125 -20.921875 C 14.671875 -20.742188 14.148438 -20.492188 13.640625 -20.171875 C 13.140625 -19.859375 12.65625 -19.492188 12.1875 -19.078125 C 11.71875 -18.660156 11.265625 -18.222656 10.828125 -17.765625 C 10.441406 -17.378906 10.039062 -16.90625 9.625 -16.34375 C 9.207031 -15.789062 8.796875 -15.179688 8.390625 -14.515625 C 7.992188 -13.859375 7.609375 -13.164062 7.234375 -12.4375 C 6.859375 -11.707031 6.53125 -10.984375 6.25 -10.265625 C 5.96875 -9.554688 5.742188 -8.867188 5.578125 -8.203125 C 5.421875 -7.535156 5.34375 -6.929688 5.34375 -6.390625 C 5.34375 -6.234375 5.359375 -6.019531 5.390625 -5.75 C 5.429688 -5.476562 5.5 -5.210938 5.59375 -4.953125 C 5.6875 -4.703125 5.8125 -4.484375 5.96875 -4.296875 C 6.125 -4.117188 6.316406 -4.03125 6.546875 -4.03125 C 7.296875 -4.03125 8.238281 -4.269531 9.375 -4.75 C 10.914062 -5.40625 12.3125 -6.300781 13.5625 -7.4375 C 14.820312 -8.582031 15.894531 -9.898438 16.78125 -11.390625 C 18.050781 -13.703125 18.6875 -16.171875 18.6875 -18.796875 Z M 18.6875 -18.796875 "/></g></g></g><g fill="#0693e3" fill-opacity="1"><g transform="translate(476.895517, 419.249999)"><g><path d="M 14.765625 -36.015625 C 14.765625 -34.941406 14.484375 -34.03125 13.921875 -33.28125 C 13.378906 -32.53125 12.582031 -32.15625 11.53125 -32.15625 C 10.875 -32.15625 10.144531 -32.25 9.34375 -32.4375 C 8.5625 -32.632812 8.171875 -32.957031 8.171875 -33.40625 C 8.171875 -34.207031 8.421875 -34.972656 8.921875 -35.703125 C 9.421875 -36.429688 10.019531 -37.023438 10.71875 -37.484375 C 11.28125 -37.816406 11.648438 -37.984375 11.828125 -37.984375 C 12.765625 -37.984375 13.488281 -37.851562 14 -37.59375 C 14.507812 -37.34375 14.765625 -36.816406 14.765625 -36.015625 Z M 30.875 -16.015625 C 30.882812 -15.671875 30.726562 -15.203125 30.40625 -14.609375 C 30.09375 -14.015625 29.660156 -13.34375 29.109375 -12.59375 C 28.554688 -11.851562 27.914062 -11.054688 27.1875 -10.203125 C 26.457031 -9.347656 25.691406 -8.5 24.890625 -7.65625 C 23.972656 -6.664062 23 -5.710938 21.96875 -4.796875 C 20.945312 -3.890625 19.851562 -3.015625 18.6875 -2.171875 C 16.394531 -0.460938 14.347656 0.390625 12.546875 0.390625 C 10.554688 0.390625 9.015625 -0.269531 7.921875 -1.59375 C 6.816406 -2.9375 6.070312 -4.5625 5.6875 -6.46875 C 5.289062 -8.351562 5.09375 -10.296875 5.09375 -12.296875 C 5.09375 -13.128906 5.191406 -14.429688 5.390625 -16.203125 C 5.484375 -17.085938 5.578125 -17.847656 5.671875 -18.484375 C 5.773438 -19.128906 5.882812 -19.648438 6 -20.046875 C 6.226562 -20.816406 6.710938 -21.488281 7.453125 -22.0625 C 8.203125 -22.664062 8.988281 -22.96875 9.8125 -22.96875 C 10.257812 -22.96875 10.484375 -22.550781 10.484375 -21.71875 C 10.484375 -21.164062 10.425781 -20.535156 10.3125 -19.828125 C 10.207031 -19.117188 10.097656 -18.421875 9.984375 -17.734375 C 9.773438 -16.441406 9.617188 -15.28125 9.515625 -14.25 C 9.421875 -13.226562 9.375 -12.335938 9.375 -11.578125 C 9.375 -9.921875 9.601562 -8.25 10.0625 -6.5625 C 10.519531 -4.84375 11.347656 -3.984375 12.546875 -3.984375 C 13.753906 -3.984375 15.164062 -4.425781 16.78125 -5.3125 C 17.582031 -5.769531 18.382812 -6.273438 19.1875 -6.828125 C 19.988281 -7.390625 20.789062 -8.015625 21.59375 -8.703125 C 22.414062 -9.390625 23.203125 -10.082031 23.953125 -10.78125 C 24.710938 -11.476562 25.453125 -12.195312 26.171875 -12.9375 C 26.890625 -13.675781 27.535156 -14.363281 28.109375 -15 C 28.679688 -15.644531 29.179688 -16.238281 29.609375 -16.78125 C 29.628906 -16.8125 29.660156 -16.863281 29.703125 -16.9375 C 29.742188 -17.007812 29.785156 -17.082031 29.828125 -17.15625 C 29.878906 -17.226562 29.929688 -17.289062 29.984375 -17.34375 C 30.035156 -17.394531 30.082031 -17.410156 30.125 -17.390625 C 30.351562 -17.390625 30.523438 -17.207031 30.640625 -16.84375 C 30.796875 -16.5 30.875 -16.222656 30.875 -16.015625 Z M 30.875 -16.015625 "/></g></g></g><g fill="#0693e3" fill-opacity="1"><g transform="translate(500.357575, 419.249999)"><g><path d="M 46.4375 -17.59375 C 46.4375 -17.28125 46.382812 -16.960938 46.28125 -16.640625 C 46.175781 -16.316406 46.046875 -15.992188 45.890625 -15.671875 C 45.734375 -15.359375 45.554688 -15.050781 45.359375 -14.75 C 45.160156 -14.445312 44.972656 -14.15625 44.796875 -13.875 C 44.316406 -13.132812 43.753906 -12.382812 43.109375 -11.625 C 42.472656 -10.863281 41.789062 -10.117188 41.0625 -9.390625 C 40.332031 -8.671875 39.582031 -7.988281 38.8125 -7.34375 C 38.039062 -6.707031 37.285156 -6.144531 36.546875 -5.65625 C 35.960938 -5.257812 35.398438 -4.890625 34.859375 -4.546875 C 34.328125 -4.203125 33.789062 -3.90625 33.25 -3.65625 C 32.707031 -3.414062 32.140625 -3.222656 31.546875 -3.078125 C 30.960938 -2.929688 30.316406 -2.859375 29.609375 -2.859375 C 28.253906 -2.859375 27.148438 -3.203125 26.296875 -3.890625 C 25.867188 -4.234375 25.492188 -4.675781 25.171875 -5.21875 C 24.859375 -5.769531 24.582031 -6.378906 24.34375 -7.046875 C 24.101562 -7.722656 23.894531 -8.4375 23.71875 -9.1875 C 23.550781 -9.945312 23.410156 -10.695312 23.296875 -11.4375 C 23.148438 -12.351562 23.007812 -13.175781 22.875 -13.90625 C 22.738281 -14.632812 22.582031 -15.25 22.40625 -15.75 C 22.238281 -16.25 22.03125 -16.632812 21.78125 -16.90625 C 21.539062 -17.175781 21.222656 -17.3125 20.828125 -17.3125 C 20.515625 -17.3125 20.21875 -17.28125 19.9375 -17.21875 C 19.664062 -17.15625 19.378906 -17.023438 19.078125 -16.828125 C 18.773438 -16.628906 18.441406 -16.347656 18.078125 -15.984375 C 17.710938 -15.628906 17.289062 -15.15625 16.8125 -14.5625 C 16.332031 -13.96875 15.78125 -13.242188 15.15625 -12.390625 C 14.53125 -11.546875 13.800781 -10.53125 12.96875 -9.34375 C 12.550781 -8.769531 12.0625 -8.140625 11.5 -7.453125 C 10.945312 -6.765625 10.378906 -6.109375 9.796875 -5.484375 C 9.210938 -4.859375 8.640625 -4.304688 8.078125 -3.828125 C 7.523438 -3.359375 7.035156 -3.054688 6.609375 -2.921875 C 5.171875 -3.234375 4.453125 -5.03125 4.453125 -8.3125 C 4.453125 -9.1875 4.550781 -10.507812 4.75 -12.28125 C 4.84375 -13.082031 4.953125 -13.921875 5.078125 -14.796875 C 5.210938 -15.671875 5.378906 -16.546875 5.578125 -17.421875 C 5.773438 -18.304688 6 -19.160156 6.25 -19.984375 C 6.507812 -20.816406 6.8125 -21.582031 7.15625 -22.28125 C 7.320312 -22.613281 7.492188 -22.875 7.671875 -23.0625 C 7.847656 -23.25 8.03125 -23.382812 8.21875 -23.46875 C 8.414062 -23.5625 8.613281 -23.617188 8.8125 -23.640625 C 9.019531 -23.671875 9.234375 -23.6875 9.453125 -23.6875 C 9.710938 -23.6875 9.941406 -23.503906 10.140625 -23.140625 C 10.347656 -22.785156 10.453125 -22.285156 10.453125 -21.640625 C 10.453125 -21.253906 10.414062 -20.882812 10.34375 -20.53125 C 10.28125 -20.1875 10.191406 -19.832031 10.078125 -19.46875 C 9.960938 -19.113281 9.835938 -18.726562 9.703125 -18.3125 C 9.578125 -17.894531 9.453125 -17.414062 9.328125 -16.875 C 9.222656 -16.425781 9.109375 -15.929688 8.984375 -15.390625 C 8.867188 -14.859375 8.753906 -14.3125 8.640625 -13.75 C 8.535156 -13.1875 8.445312 -12.640625 8.375 -12.109375 C 8.300781 -11.578125 8.265625 -11.097656 8.265625 -10.671875 C 8.265625 -10.378906 8.3125 -10.078125 8.40625 -9.765625 C 8.863281 -9.816406 9.617188 -10.503906 10.671875 -11.828125 C 11.210938 -12.503906 11.804688 -13.242188 12.453125 -14.046875 C 13.109375 -14.847656 13.8125 -15.734375 14.5625 -16.703125 C 15.113281 -17.421875 15.664062 -18.09375 16.21875 -18.71875 C 16.769531 -19.34375 17.335938 -19.890625 17.921875 -20.359375 C 18.515625 -20.828125 19.144531 -21.191406 19.8125 -21.453125 C 20.476562 -21.722656 21.210938 -21.859375 22.015625 -21.859375 C 22.867188 -21.859375 23.578125 -21.675781 24.140625 -21.3125 C 24.703125 -20.945312 25.15625 -20.4375 25.5 -19.78125 C 25.851562 -19.132812 26.125 -18.359375 26.3125 -17.453125 C 26.5 -16.554688 26.648438 -15.566406 26.765625 -14.484375 C 26.859375 -13.566406 26.953125 -12.65625 27.046875 -11.75 C 27.140625 -10.851562 27.316406 -10.046875 27.578125 -9.328125 C 27.835938 -8.617188 28.210938 -8.039062 28.703125 -7.59375 C 29.191406 -7.15625 29.894531 -6.9375 30.8125 -6.9375 C 31.519531 -6.9375 32.257812 -7.097656 33.03125 -7.421875 C 33.800781 -7.753906 34.613281 -8.210938 35.46875 -8.796875 C 36.320312 -9.378906 37.203125 -10.0625 38.109375 -10.84375 C 39.023438 -11.632812 39.96875 -12.5 40.9375 -13.4375 C 41.3125 -13.789062 41.722656 -14.242188 42.171875 -14.796875 C 42.617188 -15.347656 43.0625 -15.875 43.5 -16.375 C 43.9375 -16.882812 44.34375 -17.316406 44.71875 -17.671875 C 45.09375 -18.035156 45.394531 -18.21875 45.625 -18.21875 C 45.726562 -18.21875 45.890625 -18.171875 46.109375 -18.078125 C 46.328125 -17.984375 46.4375 -17.820312 46.4375 -17.59375 Z M 46.4375 -17.59375 "/></g></g></g><g fill="#0693e3" fill-opacity="1"><g transform="translate(538.551062, 419.249999)"><g><path d="M 34.3125 -16.96875 C 34.3125 -16.726562 34.128906 -16.296875 33.765625 -15.671875 C 32.921875 -14.441406 31.96875 -13.210938 30.90625 -11.984375 C 29.84375 -10.753906 28.71875 -9.582031 27.53125 -8.46875 C 26.34375 -7.363281 25.101562 -6.332031 23.8125 -5.375 C 22.53125 -4.414062 21.234375 -3.585938 19.921875 -2.890625 C 18.609375 -2.191406 17.300781 -1.65625 16 -1.28125 C 14.695312 -0.90625 13.4375 -0.722656 12.21875 -0.734375 C 9.601562 -0.734375 7.566406 -1.492188 6.109375 -3.015625 C 4.660156 -4.546875 3.9375 -6.851562 3.9375 -9.9375 C 3.9375 -12.507812 4.332031 -15.007812 5.125 -17.4375 C 5.925781 -19.863281 7.285156 -22.203125 9.203125 -24.453125 C 9.554688 -24.847656 9.957031 -25.222656 10.40625 -25.578125 C 10.863281 -25.941406 11.34375 -26.257812 11.84375 -26.53125 C 12.34375 -26.8125 12.859375 -27.035156 13.390625 -27.203125 C 13.921875 -27.367188 14.457031 -27.46875 15 -27.5 C 15.132812 -27.5 15.316406 -27.484375 15.546875 -27.453125 C 15.773438 -27.421875 16.019531 -27.363281 16.28125 -27.28125 C 16.539062 -27.195312 16.796875 -27.09375 17.046875 -26.96875 C 17.296875 -26.84375 17.492188 -26.691406 17.640625 -26.515625 C 18.097656 -25.992188 18.460938 -25.453125 18.734375 -24.890625 C 19.003906 -24.335938 19.15625 -23.722656 19.1875 -23.046875 C 19.21875 -22.296875 19.128906 -21.554688 18.921875 -20.828125 C 18.722656 -20.097656 18.378906 -19.347656 17.890625 -18.578125 C 17.410156 -17.816406 16.773438 -17.03125 15.984375 -16.21875 C 15.203125 -15.40625 14.253906 -14.535156 13.140625 -13.609375 C 12.429688 -13.015625 11.644531 -12.359375 10.78125 -11.640625 C 9.925781 -10.929688 8.890625 -10.179688 7.671875 -9.390625 C 7.671875 -7.804688 8.148438 -6.597656 9.109375 -5.765625 C 10.066406 -4.941406 11.382812 -4.53125 13.0625 -4.53125 C 14 -4.53125 14.941406 -4.648438 15.890625 -4.890625 C 16.835938 -5.140625 17.769531 -5.460938 18.6875 -5.859375 C 19.613281 -6.265625 20.503906 -6.722656 21.359375 -7.234375 C 22.222656 -7.753906 23.03125 -8.285156 23.78125 -8.828125 C 25.175781 -9.847656 26.4375 -10.859375 27.5625 -11.859375 C 28.695312 -12.867188 29.820312 -13.929688 30.9375 -15.046875 L 32.265625 -16.375 C 33.078125 -17.082031 33.660156 -17.4375 34.015625 -17.4375 C 34.210938 -17.4375 34.3125 -17.28125 34.3125 -16.96875 Z M 15.515625 -21.859375 C 15.503906 -22.109375 15.46875 -22.351562 15.40625 -22.59375 C 15.351562 -22.832031 15.269531 -23.039062 15.15625 -23.21875 C 15.039062 -23.394531 14.90625 -23.535156 14.75 -23.640625 C 14.601562 -23.753906 14.429688 -23.8125 14.234375 -23.8125 C 13.367188 -23.757812 12.5 -23.226562 11.625 -22.21875 C 10.757812 -21.207031 9.941406 -19.875 9.171875 -18.21875 C 8.992188 -17.863281 8.832031 -17.457031 8.6875 -17 C 8.550781 -16.550781 8.421875 -16.09375 8.296875 -15.625 C 8.171875 -15.164062 8.0625 -14.703125 7.96875 -14.234375 C 7.882812 -13.773438 7.8125 -13.367188 7.75 -13.015625 C 8.601562 -13.648438 9.390625 -14.238281 10.109375 -14.78125 C 10.828125 -15.320312 11.5 -15.878906 12.125 -16.453125 C 12.519531 -16.816406 12.921875 -17.207031 13.328125 -17.625 C 13.742188 -18.039062 14.117188 -18.476562 14.453125 -18.9375 C 14.785156 -19.394531 15.050781 -19.867188 15.25 -20.359375 C 15.445312 -20.859375 15.535156 -21.359375 15.515625 -21.859375 Z M 15.515625 -21.859375 "/></g></g></g><g fill="#0693e3" fill-opacity="1"><g transform="translate(565.066385, 419.249999)"><g/></g></g></svg>