<svg xmlns="http://www.w3.org/2000/svg" xmlns:xlink="http://www.w3.org/1999/xlink" width="1080" zoomAndPan="magnify" viewBox="0 0 810 809.999993" height="1080" preserveAspectRatio="xMidYMid meet" version="1.0"><defs><g/></defs><rect x="-81" width="972" fill="#ffffff" y="-80.999999" height="971.999992" fill-opacity="1"/><rect x="-81" width="972" fill="#ffffff" y="-80.999999" height="971.999992" fill-opacity="1"/><g fill="#0693e3" fill-opacity="1"><g transform="translate(106.710936, 428.624998)"><g><path d="M 60.375 -21.78125 C 60.375 -21.15625 60.289062 -20.257812 60.125 -19.09375 C 59.96875 -17.894531 59.847656 -17.203125 59.765625 -17.015625 C 59.410156 -15.609375 58.769531 -14.066406 57.84375 -12.390625 C 56.925781 -10.722656 55.859375 -9.117188 54.640625 -7.578125 C 53.472656 -6.078125 52.289062 -4.738281 51.09375 -3.5625 C 49.894531 -2.382812 48.875 -1.507812 48.03125 -0.9375 C 47.164062 -0.3125 46.070312 0.300781 44.75 0.90625 C 43.4375 1.519531 41.882812 2.097656 40.09375 2.640625 C 36.539062 3.753906 33.4375 4.3125 30.78125 4.3125 C 28.5 4.3125 26.40625 3.90625 24.5 3.09375 C 22.601562 2.332031 21.65625 0.851562 21.65625 -1.34375 C 21.65625 -2.675781 22 -3.644531 22.6875 -4.25 C 23.382812 -4.863281 24.628906 -5.171875 26.421875 -5.171875 C 28.398438 -5.171875 30.125 -4.832031 31.59375 -4.15625 C 33.082031 -3.5 34.359375 -3.171875 35.421875 -3.171875 C 36.015625 -3.171875 37.207031 -3.375 39 -3.78125 C 40.757812 -4.21875 42.15625 -4.789062 43.1875 -5.5 C 44.332031 -6.257812 45.515625 -7.242188 46.734375 -8.453125 C 47.953125 -9.660156 49.070312 -10.960938 50.09375 -12.359375 C 51.113281 -13.753906 51.9375 -15.171875 52.5625 -16.609375 C 53.1875 -18.046875 53.484375 -19.40625 53.453125 -20.6875 C 53.453125 -22.53125 52.71875 -24.171875 51.25 -25.609375 C 49.789062 -27.078125 48.066406 -28.21875 46.078125 -29.03125 C 44.078125 -29.84375 42.367188 -30.25 40.953125 -30.25 C 38.785156 -30.25 37.128906 -30.085938 35.984375 -29.765625 C 34.816406 -29.460938 33.707031 -29.050781 32.65625 -28.53125 C 31.59375 -28.019531 30.679688 -27.765625 29.921875 -27.765625 C 29.054688 -27.765625 28.160156 -28.050781 27.234375 -28.625 C 26.304688 -29.1875 25.84375 -29.90625 25.84375 -30.78125 C 25.84375 -31.539062 25.957031 -32.195312 26.1875 -32.75 C 26.425781 -33.3125 26.734375 -33.785156 27.109375 -34.171875 C 27.492188 -34.566406 27.929688 -34.878906 28.421875 -35.109375 C 28.910156 -35.335938 29.425781 -35.507812 29.96875 -35.625 C 30.507812 -35.757812 31.09375 -35.875 31.71875 -35.96875 C 32.34375 -36.0625 33.003906 -36.132812 33.703125 -36.1875 C 35.117188 -36.300781 35.972656 -36.4375 36.265625 -36.59375 C 38.140625 -37.6875 40.066406 -38.976562 42.046875 -40.46875 C 43.078125 -41.226562 44.035156 -42.007812 44.921875 -42.8125 C 45.804688 -43.613281 46.640625 -44.429688 47.421875 -45.265625 C 48.992188 -46.921875 49.78125 -48.28125 49.78125 -49.34375 C 49.78125 -50.78125 49.179688 -51.863281 47.984375 -52.59375 C 46.796875 -53.332031 44.832031 -53.703125 42.09375 -53.703125 C 41.195312 -53.703125 40.234375 -53.660156 39.203125 -53.578125 C 38.171875 -53.492188 37.113281 -53.363281 36.03125 -53.1875 C 34.945312 -53.007812 33.851562 -52.789062 32.75 -52.53125 C 31.65625 -52.28125 30.578125 -51.988281 29.515625 -51.65625 C 28.453125 -51.332031 27.429688 -50.96875 26.453125 -50.5625 C 25.484375 -50.15625 24.578125 -49.707031 23.734375 -49.21875 C 22.890625 -48.726562 22.140625 -48.203125 21.484375 -47.640625 C 20.835938 -47.085938 20.3125 -46.515625 19.90625 -45.921875 C 19.6875 -45.597656 19.53125 -45.046875 19.4375 -44.265625 C 19.34375 -43.492188 19.253906 -42.269531 19.171875 -40.59375 C 19.148438 -39.75 19.125 -38.832031 19.09375 -37.84375 C 19.0625 -36.851562 19.019531 -35.742188 18.96875 -34.515625 C 18.914062 -33.296875 18.867188 -32.242188 18.828125 -31.359375 C 18.785156 -30.484375 18.738281 -29.734375 18.6875 -29.109375 C 18.632812 -28.585938 18.554688 -27.953125 18.453125 -27.203125 C 18.359375 -26.460938 18.242188 -25.59375 18.109375 -24.59375 C 17.835938 -22.632812 17.628906 -20.9375 17.484375 -19.5 C 17.335938 -18.0625 17.265625 -16.703125 17.265625 -15.421875 C 17.265625 -14.992188 17.273438 -14.472656 17.296875 -13.859375 C 17.328125 -13.253906 17.367188 -12.554688 17.421875 -11.765625 C 17.472656 -10.972656 17.515625 -10.269531 17.546875 -9.65625 C 17.578125 -9.050781 17.59375 -8.5625 17.59375 -8.1875 C 17.59375 -5.820312 17.28125 -4.085938 16.65625 -2.984375 C 16.03125 -1.890625 14.984375 -1.34375 13.515625 -1.34375 C 10.285156 -1.34375 8.671875 -4.097656 8.671875 -9.609375 C 8.671875 -10.253906 8.992188 -12.4375 9.640625 -16.15625 C 10.296875 -19.851562 10.664062 -22.160156 10.75 -23.078125 C 10.882812 -24.328125 11 -25.507812 11.09375 -26.625 C 11.1875 -27.738281 11.289062 -28.796875 11.40625 -29.796875 C 11.507812 -30.804688 11.628906 -31.988281 11.765625 -33.34375 C 11.898438 -34.695312 12.0625 -36.257812 12.25 -38.03125 C 12.382812 -39.113281 12.484375 -39.992188 12.546875 -40.671875 C 12.617188 -41.347656 12.65625 -41.820312 12.65625 -42.09375 C 12.65625 -42.75 12.5625 -43.46875 12.375 -44.25 C 12.269531 -44.6875 12.195312 -45.0625 12.15625 -45.375 C 12.113281 -45.6875 12.09375 -45.9375 12.09375 -46.125 C 12.09375 -48.132812 12.457031 -49.859375 13.1875 -51.296875 C 14.132812 -53.191406 14.910156 -54.15625 15.515625 -54.1875 C 16.460938 -54.320312 17.351562 -54.488281 18.1875 -54.6875 C 19.03125 -54.894531 19.832031 -55.117188 20.59375 -55.359375 C 24.125 -56.554688 26.914062 -57.492188 28.96875 -58.171875 C 31.019531 -58.847656 32.351562 -59.285156 32.96875 -59.484375 C 34.21875 -59.890625 35.523438 -60.171875 36.890625 -60.328125 C 37.585938 -60.441406 38.425781 -60.519531 39.40625 -60.5625 C 40.382812 -60.601562 41.523438 -60.625 42.828125 -60.625 L 45.109375 -60.625 C 45.679688 -60.644531 46.429688 -60.503906 47.359375 -60.203125 C 48.296875 -59.910156 49.242188 -59.519531 50.203125 -59.03125 C 51.171875 -58.539062 52.0625 -57.988281 52.875 -57.375 C 53.695312 -56.769531 54.269531 -56.15625 54.59375 -55.53125 C 54.96875 -54.957031 55.289062 -54.085938 55.5625 -52.921875 C 55.695312 -52.328125 55.804688 -51.789062 55.890625 -51.3125 C 55.972656 -50.84375 56.015625 -50.414062 56.015625 -50.03125 C 56.015625 -47.832031 55.070312 -45.578125 53.1875 -43.265625 C 51.300781 -40.960938 48.550781 -38.347656 44.9375 -35.421875 C 46.945312 -35.015625 48.878906 -34.351562 50.734375 -33.4375 C 52.597656 -32.53125 54.242188 -31.457031 55.671875 -30.21875 C 57.097656 -28.988281 58.238281 -27.644531 59.09375 -26.1875 C 59.945312 -24.738281 60.375 -23.269531 60.375 -21.78125 Z M 60.375 -21.78125 "/></g></g></g><g fill="#0693e3" fill-opacity="1"><g transform="translate(169.64339, 428.624998)"><g><path d="M 24.421875 -59.59375 C 24.421875 -57.832031 23.960938 -56.328125 23.046875 -55.078125 C 22.148438 -53.828125 20.832031 -53.203125 19.09375 -53.203125 C 18.007812 -53.203125 16.800781 -53.367188 15.46875 -53.703125 C 14.164062 -54.023438 13.515625 -54.550781 13.515625 -55.28125 C 13.515625 -56.613281 13.925781 -57.882812 14.75 -59.09375 C 15.582031 -60.300781 16.582031 -61.285156 17.75 -62.046875 C 18.675781 -62.585938 19.285156 -62.859375 19.578125 -62.859375 C 21.128906 -62.859375 22.320312 -62.644531 23.15625 -62.21875 C 24 -61.800781 24.421875 -60.925781 24.421875 -59.59375 Z M 51.09375 -26.5 C 51.113281 -25.925781 50.859375 -25.148438 50.328125 -24.171875 C 49.804688 -23.203125 49.085938 -22.097656 48.171875 -20.859375 C 47.265625 -19.628906 46.207031 -18.304688 45 -16.890625 C 43.789062 -15.484375 42.523438 -14.070312 41.203125 -12.65625 C 39.679688 -11.03125 38.070312 -9.460938 36.375 -7.953125 C 34.675781 -6.453125 32.863281 -4.992188 30.9375 -3.578125 C 27.132812 -0.753906 23.742188 0.65625 20.765625 0.65625 C 17.484375 0.65625 14.929688 -0.441406 13.109375 -2.640625 C 11.285156 -4.867188 10.050781 -7.554688 9.40625 -10.703125 C 8.75 -13.828125 8.421875 -17.046875 8.421875 -20.359375 C 8.421875 -21.742188 8.585938 -23.898438 8.921875 -26.828125 C 9.078125 -28.296875 9.234375 -29.554688 9.390625 -30.609375 C 9.554688 -31.671875 9.738281 -32.523438 9.9375 -33.171875 C 10.3125 -34.453125 11.109375 -35.566406 12.328125 -36.515625 C 13.578125 -37.523438 14.882812 -38.03125 16.25 -38.03125 C 16.976562 -38.03125 17.34375 -37.335938 17.34375 -35.953125 C 17.34375 -35.023438 17.253906 -33.976562 17.078125 -32.8125 C 16.898438 -31.644531 16.71875 -30.492188 16.53125 -29.359375 C 16.175781 -27.210938 15.914062 -25.289062 15.75 -23.59375 C 15.59375 -21.894531 15.515625 -20.421875 15.515625 -19.171875 C 15.515625 -16.429688 15.894531 -13.664062 16.65625 -10.875 C 17.414062 -8.019531 18.785156 -6.59375 20.765625 -6.59375 C 22.773438 -6.59375 25.109375 -7.328125 27.765625 -8.796875 C 29.097656 -9.554688 30.425781 -10.394531 31.75 -11.3125 C 33.082031 -12.238281 34.414062 -13.269531 35.75 -14.40625 C 37.101562 -15.550781 38.40625 -16.695312 39.65625 -17.84375 C 40.90625 -19 42.125 -20.1875 43.3125 -21.40625 C 44.507812 -22.632812 45.582031 -23.773438 46.53125 -24.828125 C 47.476562 -25.890625 48.304688 -26.867188 49.015625 -27.765625 C 49.046875 -27.816406 49.09375 -27.90625 49.15625 -28.03125 C 49.226562 -28.15625 49.300781 -28.273438 49.375 -28.390625 C 49.457031 -28.515625 49.539062 -28.617188 49.625 -28.703125 C 49.707031 -28.785156 49.789062 -28.8125 49.875 -28.78125 C 50.25 -28.78125 50.53125 -28.484375 50.71875 -27.890625 C 50.96875 -27.316406 51.09375 -26.851562 51.09375 -26.5 Z M 51.09375 -26.5 "/></g></g></g><g fill="#0693e3" fill-opacity="1"><g transform="translate(208.477517, 428.624998)"><g><path d="M 47.21875 -24.671875 C 47.21875 -23.390625 46.445312 -21.394531 44.90625 -18.6875 C 44.601562 -18.164062 44.1875 -17.546875 43.65625 -16.828125 C 43.132812 -16.109375 42.546875 -15.363281 41.890625 -14.59375 C 41.234375 -13.820312 40.550781 -13.035156 39.84375 -12.234375 C 39.144531 -11.429688 38.457031 -10.691406 37.78125 -10.015625 C 36.75 -8.984375 35.613281 -7.976562 34.375 -7 C 33.144531 -6.019531 31.84375 -5.132812 30.46875 -4.34375 C 29.101562 -3.5625 27.691406 -2.929688 26.234375 -2.453125 C 24.785156 -1.984375 23.351562 -1.75 21.9375 -1.75 C 20.070312 -1.75 18.320312 -2.085938 16.6875 -2.765625 C 15.0625 -3.441406 13.644531 -4.484375 12.4375 -5.890625 C 11.226562 -7.304688 10.273438 -9.078125 9.578125 -11.203125 C 8.890625 -13.335938 8.546875 -15.859375 8.546875 -18.765625 C 8.546875 -20.742188 8.640625 -22.8125 8.828125 -24.96875 C 9.023438 -27.132812 9.269531 -29.300781 9.5625 -31.46875 C 9.863281 -33.632812 10.195312 -35.785156 10.5625 -37.921875 C 10.925781 -40.054688 11.300781 -42.113281 11.6875 -44.09375 C 11.925781 -45.445312 12.132812 -46.554688 12.3125 -47.421875 C 12.488281 -48.296875 12.644531 -49.097656 12.78125 -49.828125 C 12.914062 -50.554688 13.035156 -51.296875 13.140625 -52.046875 C 13.253906 -52.796875 13.394531 -53.726562 13.5625 -54.84375 C 13.664062 -55.601562 13.765625 -56.273438 13.859375 -56.859375 C 13.953125 -57.441406 14.023438 -57.921875 14.078125 -58.296875 C 14.191406 -58.953125 14.375 -59.578125 14.625 -60.171875 C 14.882812 -60.765625 15.210938 -61.289062 15.609375 -61.75 C 16.003906 -62.21875 16.457031 -62.585938 16.96875 -62.859375 C 17.488281 -63.128906 18.0625 -63.265625 18.6875 -63.265625 C 19.988281 -63.265625 20.953125 -62.65625 21.578125 -61.4375 C 21.410156 -60.59375 21.238281 -59.78125 21.0625 -59 C 20.882812 -58.226562 20.726562 -57.410156 20.59375 -56.546875 C 19.914062 -53.128906 19.359375 -50.359375 18.921875 -48.234375 C 18.492188 -46.117188 18.1875 -44.628906 18 -43.765625 C 17.664062 -42.054688 17.316406 -40.207031 16.953125 -38.21875 C 16.585938 -36.238281 16.25 -34.21875 15.9375 -32.15625 C 15.625 -30.09375 15.375 -28.054688 15.1875 -26.046875 C 15 -24.046875 14.90625 -22.175781 14.90625 -20.4375 C 14.90625 -18.5625 15.050781 -16.859375 15.34375 -15.328125 C 15.644531 -13.796875 16.128906 -12.484375 16.796875 -11.390625 C 17.460938 -10.304688 18.316406 -9.46875 19.359375 -8.875 C 20.398438 -8.28125 21.671875 -7.984375 23.171875 -7.984375 C 24.796875 -7.984375 26.394531 -8.34375 27.96875 -9.0625 C 29.539062 -9.78125 31.050781 -10.691406 32.5 -11.796875 C 33.957031 -12.910156 35.335938 -14.140625 36.640625 -15.484375 C 37.941406 -16.828125 39.132812 -18.125 40.21875 -19.375 C 41.09375 -20.40625 41.851562 -21.296875 42.5 -22.046875 C 43.15625 -22.796875 43.695312 -23.425781 44.125 -23.9375 C 44.476562 -24.34375 44.878906 -24.757812 45.328125 -25.1875 C 45.773438 -25.625 46.191406 -25.84375 46.578125 -25.84375 C 47.003906 -25.84375 47.21875 -25.453125 47.21875 -24.671875 Z M 47.21875 -24.671875 "/></g></g></g><g fill="#0693e3" fill-opacity="1"><g transform="translate(245.479846, 428.624998)"><g><path d="M 56.796875 -28.09375 C 56.796875 -27.6875 56.492188 -26.96875 55.890625 -25.9375 C 54.484375 -23.894531 52.90625 -21.851562 51.15625 -19.8125 C 49.40625 -17.78125 47.546875 -15.847656 45.578125 -14.015625 C 43.609375 -12.191406 41.554688 -10.484375 39.421875 -8.890625 C 37.296875 -7.304688 35.144531 -5.9375 32.96875 -4.78125 C 30.800781 -3.625 28.640625 -2.734375 26.484375 -2.109375 C 24.328125 -1.492188 22.242188 -1.195312 20.234375 -1.21875 C 15.890625 -1.21875 12.515625 -2.476562 10.109375 -5 C 7.710938 -7.53125 6.515625 -11.347656 6.515625 -16.453125 C 6.515625 -20.710938 7.171875 -24.847656 8.484375 -28.859375 C 9.804688 -32.878906 12.050781 -36.75 15.21875 -40.46875 C 15.820312 -41.113281 16.492188 -41.734375 17.234375 -42.328125 C 17.984375 -42.929688 18.769531 -43.460938 19.59375 -43.921875 C 20.425781 -44.390625 21.28125 -44.757812 22.15625 -45.03125 C 23.039062 -45.300781 23.929688 -45.460938 24.828125 -45.515625 C 25.046875 -45.515625 25.34375 -45.484375 25.71875 -45.421875 C 26.101562 -45.367188 26.515625 -45.273438 26.953125 -45.140625 C 27.390625 -45.003906 27.8125 -44.832031 28.21875 -44.625 C 28.625 -44.425781 28.945312 -44.179688 29.1875 -43.890625 C 29.945312 -43.015625 30.550781 -42.113281 31 -41.1875 C 31.445312 -40.269531 31.695312 -39.253906 31.75 -38.140625 C 31.800781 -36.890625 31.65625 -35.660156 31.3125 -34.453125 C 30.976562 -33.253906 30.410156 -32.019531 29.609375 -30.75 C 28.816406 -29.488281 27.765625 -28.1875 26.453125 -26.84375 C 25.148438 -25.5 23.578125 -24.054688 21.734375 -22.515625 C 20.566406 -21.535156 19.269531 -20.453125 17.84375 -19.265625 C 16.425781 -18.085938 14.710938 -16.847656 12.703125 -15.546875 C 12.703125 -12.921875 13.492188 -10.921875 15.078125 -9.546875 C 16.671875 -8.171875 18.851562 -7.484375 21.625 -7.484375 C 23.164062 -7.484375 24.722656 -7.6875 26.296875 -8.09375 C 27.867188 -8.507812 29.414062 -9.046875 30.9375 -9.703125 C 32.457031 -10.367188 33.929688 -11.128906 35.359375 -11.984375 C 36.785156 -12.835938 38.117188 -13.710938 39.359375 -14.609375 C 41.671875 -16.296875 43.765625 -17.972656 45.640625 -19.640625 C 47.515625 -21.304688 49.375 -23.066406 51.21875 -24.921875 L 53.40625 -27.109375 C 54.738281 -28.273438 55.703125 -28.859375 56.296875 -28.859375 C 56.628906 -28.859375 56.796875 -28.601562 56.796875 -28.09375 Z M 25.6875 -36.1875 C 25.65625 -36.59375 25.59375 -36.992188 25.5 -37.390625 C 25.40625 -37.785156 25.265625 -38.128906 25.078125 -38.421875 C 24.890625 -38.722656 24.671875 -38.960938 24.421875 -39.140625 C 24.179688 -39.316406 23.898438 -39.40625 23.578125 -39.40625 C 22.128906 -39.320312 20.6875 -38.445312 19.25 -36.78125 C 17.8125 -35.113281 16.457031 -32.910156 15.1875 -30.171875 C 14.882812 -29.566406 14.617188 -28.890625 14.390625 -28.140625 C 14.160156 -27.398438 13.941406 -26.644531 13.734375 -25.875 C 13.535156 -25.101562 13.359375 -24.335938 13.203125 -23.578125 C 13.054688 -22.816406 12.929688 -22.132812 12.828125 -21.53125 C 14.234375 -22.59375 15.53125 -23.570312 16.71875 -24.46875 C 17.914062 -25.363281 19.03125 -26.285156 20.0625 -27.234375 C 20.71875 -27.828125 21.382812 -28.46875 22.0625 -29.15625 C 22.738281 -29.851562 23.351562 -30.582031 23.90625 -31.34375 C 24.46875 -32.101562 24.910156 -32.890625 25.234375 -33.703125 C 25.566406 -34.515625 25.71875 -35.34375 25.6875 -36.1875 Z M 25.6875 -36.1875 "/></g></g></g><g fill="#0693e3" fill-opacity="1"><g transform="translate(289.361596, 428.624998)"><g><path d="M 47.21875 -24.671875 C 47.21875 -23.390625 46.445312 -21.394531 44.90625 -18.6875 C 44.601562 -18.164062 44.1875 -17.546875 43.65625 -16.828125 C 43.132812 -16.109375 42.546875 -15.363281 41.890625 -14.59375 C 41.234375 -13.820312 40.550781 -13.035156 39.84375 -12.234375 C 39.144531 -11.429688 38.457031 -10.691406 37.78125 -10.015625 C 36.75 -8.984375 35.613281 -7.976562 34.375 -7 C 33.144531 -6.019531 31.84375 -5.132812 30.46875 -4.34375 C 29.101562 -3.5625 27.691406 -2.929688 26.234375 -2.453125 C 24.785156 -1.984375 23.351562 -1.75 21.9375 -1.75 C 20.070312 -1.75 18.320312 -2.085938 16.6875 -2.765625 C 15.0625 -3.441406 13.644531 -4.484375 12.4375 -5.890625 C 11.226562 -7.304688 10.273438 -9.078125 9.578125 -11.203125 C 8.890625 -13.335938 8.546875 -15.859375 8.546875 -18.765625 C 8.546875 -20.742188 8.640625 -22.8125 8.828125 -24.96875 C 9.023438 -27.132812 9.269531 -29.300781 9.5625 -31.46875 C 9.863281 -33.632812 10.195312 -35.785156 10.5625 -37.921875 C 10.925781 -40.054688 11.300781 -42.113281 11.6875 -44.09375 C 11.925781 -45.445312 12.132812 -46.554688 12.3125 -47.421875 C 12.488281 -48.296875 12.644531 -49.097656 12.78125 -49.828125 C 12.914062 -50.554688 13.035156 -51.296875 13.140625 -52.046875 C 13.253906 -52.796875 13.394531 -53.726562 13.5625 -54.84375 C 13.664062 -55.601562 13.765625 -56.273438 13.859375 -56.859375 C 13.953125 -57.441406 14.023438 -57.921875 14.078125 -58.296875 C 14.191406 -58.953125 14.375 -59.578125 14.625 -60.171875 C 14.882812 -60.765625 15.210938 -61.289062 15.609375 -61.75 C 16.003906 -62.21875 16.457031 -62.585938 16.96875 -62.859375 C 17.488281 -63.128906 18.0625 -63.265625 18.6875 -63.265625 C 19.988281 -63.265625 20.953125 -62.65625 21.578125 -61.4375 C 21.410156 -60.59375 21.238281 -59.78125 21.0625 -59 C 20.882812 -58.226562 20.726562 -57.410156 20.59375 -56.546875 C 19.914062 -53.128906 19.359375 -50.359375 18.921875 -48.234375 C 18.492188 -46.117188 18.1875 -44.628906 18 -43.765625 C 17.664062 -42.054688 17.316406 -40.207031 16.953125 -38.21875 C 16.585938 -36.238281 16.25 -34.21875 15.9375 -32.15625 C 15.625 -30.09375 15.375 -28.054688 15.1875 -26.046875 C 15 -24.046875 14.90625 -22.175781 14.90625 -20.4375 C 14.90625 -18.5625 15.050781 -16.859375 15.34375 -15.328125 C 15.644531 -13.796875 16.128906 -12.484375 16.796875 -11.390625 C 17.460938 -10.304688 18.316406 -9.46875 19.359375 -8.875 C 20.398438 -8.28125 21.671875 -7.984375 23.171875 -7.984375 C 24.796875 -7.984375 26.394531 -8.34375 27.96875 -9.0625 C 29.539062 -9.78125 31.050781 -10.691406 32.5 -11.796875 C 33.957031 -12.910156 35.335938 -14.140625 36.640625 -15.484375 C 37.941406 -16.828125 39.132812 -18.125 40.21875 -19.375 C 41.09375 -20.40625 41.851562 -21.296875 42.5 -22.046875 C 43.15625 -22.796875 43.695312 -23.425781 44.125 -23.9375 C 44.476562 -24.34375 44.878906 -24.757812 45.328125 -25.1875 C 45.773438 -25.625 46.191406 -25.84375 46.578125 -25.84375 C 47.003906 -25.84375 47.21875 -25.453125 47.21875 -24.671875 Z M 47.21875 -24.671875 "/></g></g></g><g fill="#0693e3" fill-opacity="1"><g transform="translate(326.363925, 428.624998)"><g/></g></g><g fill="#0693e3" fill-opacity="1"><g transform="translate(359.702668, 428.624998)"><g><path d="M 65.78125 -56.015625 C 65.78125 -54.796875 65.445312 -53.757812 64.78125 -52.90625 C 64.125 -52.050781 63.1875 -51.625 61.96875 -51.625 C 61.5 -51.625 60.984375 -51.832031 60.421875 -52.25 C 59.867188 -52.675781 59.363281 -53.09375 58.90625 -53.5 C 58.46875 -53.925781 57.960938 -54.300781 57.390625 -54.625 C 56.828125 -54.957031 56.207031 -55.125 55.53125 -55.125 C 52.1875 -55.125 47.882812 -54.007812 42.625 -51.78125 C 39.988281 -50.644531 37.53125 -49.347656 35.25 -47.890625 C 32.96875 -46.441406 30.726562 -44.804688 28.53125 -42.984375 C 26.332031 -41.171875 24.25 -39.15625 22.28125 -36.9375 C 20.320312 -34.726562 18.59375 -32.523438 17.09375 -30.328125 C 15.707031 -28.347656 14.625 -25.945312 13.84375 -23.125 C 13.113281 -20.351562 12.75 -17.648438 12.75 -15.015625 C 12.75 -13.773438 13.382812 -12.472656 14.65625 -11.109375 C 15.925781 -9.804688 17.242188 -8.96875 18.609375 -8.59375 C 20.265625 -8.15625 22.226562 -7.9375 24.5 -7.9375 C 26.21875 -7.90625 28.050781 -8.113281 30 -8.5625 C 31.957031 -9.007812 33.910156 -9.617188 35.859375 -10.390625 C 37.816406 -11.171875 39.71875 -12.054688 41.5625 -13.046875 C 43.40625 -14.035156 45.085938 -15.070312 46.609375 -16.15625 C 47.148438 -16.59375 47.726562 -17.101562 48.34375 -17.6875 C 48.957031 -18.269531 49.578125 -18.957031 50.203125 -19.75 C 50.847656 -20.53125 51.394531 -21.257812 51.84375 -21.9375 C 52.289062 -22.613281 52.648438 -23.253906 52.921875 -23.859375 C 53.109375 -24.128906 53.203125 -24.484375 53.203125 -24.921875 C 53.203125 -25.328125 53.113281 -25.832031 52.9375 -26.4375 C 52.757812 -27.050781 52.671875 -27.546875 52.671875 -27.921875 C 52.671875 -28.929688 53.894531 -29.4375 56.34375 -29.4375 C 57.101562 -29.4375 58.242188 -28.863281 59.765625 -27.71875 C 61.285156 -26.582031 62.046875 -25.703125 62.046875 -25.078125 C 62.046875 -24.992188 61.203125 -23.269531 59.515625 -19.90625 C 58.671875 -18.226562 58.023438 -16.925781 57.578125 -16 C 57.128906 -15.070312 56.867188 -14.515625 56.796875 -14.328125 C 56.328125 -13.273438 55.863281 -12.085938 55.40625 -10.765625 C 54.945312 -9.453125 54.484375 -7.992188 54.015625 -6.390625 C 53.066406 -3.160156 52.59375 -0.867188 52.59375 0.484375 C 52.539062 0.785156 52.578125 1.078125 52.703125 1.359375 C 52.828125 1.648438 52.960938 1.910156 53.109375 2.140625 C 53.253906 2.367188 53.398438 2.570312 53.546875 2.75 C 53.703125 2.925781 53.78125 3.039062 53.78125 3.09375 C 53.78125 3.75 53.664062 4.351562 53.4375 4.90625 C 53.207031 5.457031 52.894531 5.941406 52.5 6.359375 C 52.101562 6.785156 51.625 7.117188 51.0625 7.359375 C 50.507812 7.609375 49.910156 7.734375 49.265625 7.734375 C 47.847656 7.734375 46.894531 7.25 46.40625 6.28125 C 45.914062 5.320312 45.671875 4.03125 45.671875 2.40625 C 45.671875 1.96875 45.691406 1.546875 45.734375 1.140625 C 45.773438 0.734375 45.820312 0.328125 45.875 -0.078125 C 46.039062 -0.921875 46.242188 -1.859375 46.484375 -2.890625 C 46.617188 -3.398438 46.738281 -3.851562 46.84375 -4.25 C 46.957031 -4.644531 47.046875 -4.976562 47.109375 -5.25 C 47.484375 -6.769531 47.671875 -7.800781 47.671875 -8.34375 C 47.671875 -8.613281 47.617188 -8.75 47.515625 -8.75 C 46.941406 -8.75 45.160156 -8.003906 42.171875 -6.515625 C 40.648438 -5.785156 39.4375 -5.203125 38.53125 -4.765625 C 37.625 -4.328125 37.007812 -4.039062 36.6875 -3.90625 C 31.957031 -1.976562 27.503906 -1.015625 23.328125 -1.015625 C 20.640625 -1.015625 17.800781 -1.554688 14.8125 -2.640625 C 11.78125 -3.753906 9.234375 -5.34375 7.171875 -7.40625 C 5.109375 -9.5 4.078125 -11.914062 4.078125 -14.65625 C 4.078125 -22.6875 7.78125 -31.003906 15.1875 -39.609375 C 18.4375 -43.378906 21.613281 -46.566406 24.71875 -49.171875 C 27.75 -51.703125 31.460938 -54.09375 35.859375 -56.34375 C 36.566406 -56.71875 37.367188 -57.101562 38.265625 -57.5 C 39.160156 -57.894531 40.148438 -58.296875 41.234375 -58.703125 C 43.429688 -59.546875 45.613281 -60.28125 47.78125 -60.90625 C 49.957031 -61.53125 51.984375 -61.960938 53.859375 -62.203125 C 55.023438 -62.367188 56.773438 -62.453125 59.109375 -62.453125 C 59.953125 -62.472656 60.78125 -62.3125 61.59375 -61.96875 C 62.40625 -61.632812 63.125 -61.160156 63.75 -60.546875 C 64.375 -59.941406 64.875 -59.242188 65.25 -58.453125 C 65.632812 -57.671875 65.8125 -56.859375 65.78125 -56.015625 Z M 65.78125 -56.015625 "/></g></g></g><g fill="#0693e3" fill-opacity="1"><g transform="translate(426.665067, 428.624998)"><g><path d="M 45.921875 -32.859375 C 45.921875 -32.691406 45.90625 -32.453125 45.875 -32.140625 C 45.851562 -31.828125 45.785156 -31.515625 45.671875 -31.203125 C 45.566406 -30.890625 45.4375 -30.609375 45.28125 -30.359375 C 45.132812 -30.117188 44.941406 -30 44.703125 -30 C 44.535156 -30 44.257812 -30.003906 43.875 -30.015625 C 43.5 -30.035156 43.097656 -30.054688 42.671875 -30.078125 C 42.253906 -30.109375 41.851562 -30.128906 41.46875 -30.140625 C 41.09375 -30.160156 40.828125 -30.171875 40.671875 -30.171875 C 35.484375 -29.835938 31.164062 -27.9375 27.71875 -24.46875 C 24.332031 -21.070312 21.40625 -16.539062 18.9375 -10.875 C 18.46875 -9.707031 18.007812 -8.5 17.5625 -7.25 C 17.113281 -6 16.6875 -4.679688 16.28125 -3.296875 C 16.0625 -2.535156 15.90625 -1.863281 15.8125 -1.28125 C 15.71875 -0.695312 15.5625 -0.0820312 15.34375 0.5625 C 15.289062 0.78125 15.0625 0.988281 14.65625 1.1875 C 14.25 1.394531 13.789062 1.582031 13.28125 1.75 C 12.78125 1.914062 12.300781 2.050781 11.84375 2.15625 C 11.382812 2.269531 11.070312 2.328125 10.90625 2.328125 C 9.03125 2.429688 7.972656 0.488281 7.734375 -3.5 C 7.648438 -4.582031 7.613281 -5.566406 7.625 -6.453125 C 7.644531 -7.335938 7.679688 -8.191406 7.734375 -9.015625 C 7.785156 -9.847656 7.859375 -10.71875 7.953125 -11.625 C 8.046875 -12.53125 8.148438 -13.554688 8.265625 -14.703125 C 8.398438 -16.109375 8.5625 -17.734375 8.75 -19.578125 C 8.9375 -21.421875 9.148438 -23.28125 9.390625 -25.15625 C 9.640625 -27.03125 9.898438 -28.816406 10.171875 -30.515625 C 10.441406 -32.210938 10.726562 -33.613281 11.03125 -34.71875 C 11.332031 -36 11.742188 -36.953125 12.265625 -37.578125 C 12.796875 -38.203125 13.578125 -38.539062 14.609375 -38.59375 C 14.878906 -38.59375 15.171875 -38.515625 15.484375 -38.359375 C 15.796875 -38.210938 16.082031 -38.015625 16.34375 -37.765625 C 16.601562 -37.523438 16.820312 -37.269531 17 -37 C 17.175781 -36.726562 17.273438 -36.484375 17.296875 -36.265625 C 17.328125 -35.585938 17.316406 -34.847656 17.265625 -34.046875 C 17.210938 -33.253906 17.113281 -32.425781 16.96875 -31.5625 C 16.832031 -30.707031 16.671875 -29.847656 16.484375 -28.984375 C 16.296875 -28.117188 16.109375 -27.289062 15.921875 -26.5 C 15.535156 -24.957031 15.238281 -23.632812 15.03125 -22.53125 C 14.832031 -21.4375 14.664062 -20.375 14.53125 -19.34375 C 14.394531 -18.3125 14.257812 -17.203125 14.125 -16.015625 C 13.988281 -14.835938 13.8125 -13.378906 13.59375 -11.640625 C 14.0625 -12.671875 14.460938 -13.550781 14.796875 -14.28125 C 15.140625 -15.019531 15.445312 -15.664062 15.71875 -16.21875 C 15.988281 -16.78125 16.238281 -17.273438 16.46875 -17.703125 C 16.695312 -18.140625 16.945312 -18.59375 17.21875 -19.0625 C 17.488281 -19.539062 17.785156 -20.066406 18.109375 -20.640625 C 18.441406 -21.210938 18.851562 -21.90625 19.34375 -22.71875 C 21.238281 -25.863281 23.269531 -28.429688 25.4375 -30.421875 C 27.613281 -32.421875 29.707031 -33.851562 31.71875 -34.71875 C 34 -35.8125 35.867188 -36.398438 37.328125 -36.484375 C 38.035156 -36.503906 38.878906 -36.457031 39.859375 -36.34375 C 40.835938 -36.238281 41.773438 -36.035156 42.671875 -35.734375 C 43.566406 -35.441406 44.332031 -35.054688 44.96875 -34.578125 C 45.601562 -34.109375 45.921875 -33.535156 45.921875 -32.859375 Z M 45.921875 -32.859375 "/></g></g></g><g fill="#0693e3" fill-opacity="1"><g transform="translate(469.325618, 428.624998)"><g><path d="M 67.171875 -27.71875 C 67.171875 -27.394531 67.128906 -27.007812 67.046875 -26.5625 C 66.960938 -26.113281 66.847656 -25.65625 66.703125 -25.1875 C 66.554688 -24.726562 66.394531 -24.289062 66.21875 -23.875 C 66.039062 -23.457031 65.859375 -23.125 65.671875 -22.875 C 65.503906 -22.65625 65.265625 -22.363281 64.953125 -22 C 64.640625 -21.632812 64.289062 -21.234375 63.90625 -20.796875 C 63.53125 -20.367188 63.117188 -19.914062 62.671875 -19.4375 C 62.222656 -18.96875 61.753906 -18.515625 61.265625 -18.078125 C 59.585938 -16.523438 57.941406 -15.023438 56.328125 -13.578125 C 54.710938 -12.128906 53.046875 -10.847656 51.328125 -9.734375 C 49.617188 -8.617188 47.832031 -7.726562 45.96875 -7.0625 C 44.113281 -6.394531 42.101562 -6.078125 39.9375 -6.109375 C 38.9375 -6.109375 37.925781 -6.289062 36.90625 -6.65625 C 35.882812 -7.019531 34.925781 -7.539062 34.03125 -8.21875 C 33.132812 -8.894531 32.359375 -9.707031 31.703125 -10.65625 C 31.054688 -11.613281 30.597656 -12.660156 30.328125 -13.796875 C 29.546875 -12.984375 28.71875 -12.132812 27.84375 -11.25 C 26.976562 -10.375 26.078125 -9.488281 25.140625 -8.59375 C 24.203125 -7.695312 23.226562 -6.828125 22.21875 -5.984375 C 21.21875 -5.140625 20.191406 -4.363281 19.140625 -3.65625 C 18.535156 -3.28125 17.816406 -2.875 16.984375 -2.4375 C 16.160156 -2.007812 15.296875 -1.609375 14.390625 -1.234375 C 13.484375 -0.867188 12.570312 -0.570312 11.65625 -0.34375 C 10.75 -0.113281 9.929688 0 9.203125 0 C 8.085938 0 7.128906 -0.34375 6.328125 -1.03125 C 5.523438 -1.726562 4.859375 -2.578125 4.328125 -3.578125 C 3.804688 -4.585938 3.414062 -5.660156 3.15625 -6.796875 C 2.894531 -7.941406 2.765625 -8.960938 2.765625 -9.859375 C 2.765625 -11.640625 3.019531 -13.46875 3.53125 -15.34375 C 4.050781 -17.21875 4.722656 -19.039062 5.546875 -20.8125 C 6.378906 -22.59375 7.304688 -24.285156 8.328125 -25.890625 C 9.347656 -27.492188 10.34375 -28.921875 11.3125 -30.171875 C 12.34375 -31.472656 13.5625 -32.765625 14.96875 -34.046875 C 16.382812 -35.335938 17.851562 -36.492188 19.375 -37.515625 C 20.894531 -38.535156 22.390625 -39.351562 23.859375 -39.96875 C 25.328125 -40.59375 26.628906 -40.90625 27.765625 -40.90625 C 28.335938 -40.90625 28.941406 -40.90625 29.578125 -40.90625 C 30.210938 -40.90625 30.84375 -40.867188 31.46875 -40.796875 C 32.09375 -40.734375 32.703125 -40.628906 33.296875 -40.484375 C 33.898438 -40.335938 34.441406 -40.113281 34.921875 -39.8125 C 35.171875 -39.65625 35.457031 -39.34375 35.78125 -38.875 C 36.101562 -38.414062 36.40625 -37.898438 36.6875 -37.328125 C 36.976562 -36.765625 37.21875 -36.195312 37.40625 -35.625 C 37.601562 -35.050781 37.703125 -34.601562 37.703125 -34.28125 C 37.703125 -33.382812 37.5 -32.191406 37.09375 -30.703125 C 36.65625 -28.828125 36.253906 -27.117188 35.890625 -25.578125 C 35.523438 -24.046875 35.34375 -22.46875 35.34375 -20.84375 C 35.34375 -19.914062 35.488281 -18.96875 35.78125 -18 C 36.082031 -17.039062 36.507812 -16.164062 37.0625 -15.375 C 37.625 -14.59375 38.300781 -13.953125 39.09375 -13.453125 C 39.894531 -12.953125 40.800781 -12.703125 41.8125 -12.703125 C 43.46875 -12.703125 45.160156 -13.046875 46.890625 -13.734375 C 48.628906 -14.429688 50.390625 -15.382812 52.171875 -16.59375 C 53.953125 -17.800781 55.722656 -19.195312 57.484375 -20.78125 C 59.242188 -22.375 60.976562 -24.0625 62.6875 -25.84375 C 62.820312 -26.007812 63.0625 -26.289062 63.40625 -26.6875 C 63.75 -27.082031 64.101562 -27.472656 64.46875 -27.859375 C 64.832031 -28.253906 65.191406 -28.609375 65.546875 -28.921875 C 65.898438 -29.234375 66.15625 -29.390625 66.3125 -29.390625 C 66.882812 -29.390625 67.171875 -28.832031 67.171875 -27.71875 Z M 30.9375 -31.109375 C 30.9375 -31.566406 30.910156 -32.132812 30.859375 -32.8125 C 30.804688 -33.488281 30.628906 -34.046875 30.328125 -34.484375 C 30.023438 -34.921875 29.65625 -35.128906 29.21875 -35.109375 C 28.789062 -35.097656 28.359375 -35.09375 27.921875 -35.09375 C 26.972656 -35.09375 26.054688 -34.941406 25.171875 -34.640625 C 24.296875 -34.347656 23.4375 -33.9375 22.59375 -33.40625 C 21.75 -32.875 20.941406 -32.257812 20.171875 -31.5625 C 19.398438 -30.875 18.644531 -30.148438 17.90625 -29.390625 C 17.28125 -28.765625 16.625 -27.988281 15.9375 -27.0625 C 15.25 -26.144531 14.570312 -25.132812 13.90625 -24.03125 C 13.238281 -22.9375 12.59375 -21.785156 11.96875 -20.578125 C 11.34375 -19.367188 10.796875 -18.171875 10.328125 -16.984375 C 9.867188 -15.804688 9.503906 -14.664062 9.234375 -13.5625 C 8.960938 -12.46875 8.828125 -11.472656 8.828125 -10.578125 C 8.828125 -10.304688 8.859375 -9.945312 8.921875 -9.5 C 8.992188 -9.050781 9.101562 -8.617188 9.25 -8.203125 C 9.40625 -7.785156 9.613281 -7.425781 9.875 -7.125 C 10.132812 -6.820312 10.453125 -6.671875 10.828125 -6.671875 C 12.078125 -6.671875 13.640625 -7.066406 15.515625 -7.859375 C 18.066406 -8.941406 20.378906 -10.425781 22.453125 -12.3125 C 24.523438 -14.195312 26.296875 -16.375 27.765625 -18.84375 C 29.878906 -22.675781 30.9375 -26.765625 30.9375 -31.109375 Z M 30.9375 -31.109375 "/></g></g></g><g fill="#0693e3" fill-opacity="1"><g transform="translate(523.994637, 428.624998)"><g><path d="M 24.421875 -59.59375 C 24.421875 -57.832031 23.960938 -56.328125 23.046875 -55.078125 C 22.148438 -53.828125 20.832031 -53.203125 19.09375 -53.203125 C 18.007812 -53.203125 16.800781 -53.367188 15.46875 -53.703125 C 14.164062 -54.023438 13.515625 -54.550781 13.515625 -55.28125 C 13.515625 -56.613281 13.925781 -57.882812 14.75 -59.09375 C 15.582031 -60.300781 16.582031 -61.285156 17.75 -62.046875 C 18.675781 -62.585938 19.285156 -62.859375 19.578125 -62.859375 C 21.128906 -62.859375 22.320312 -62.644531 23.15625 -62.21875 C 24 -61.800781 24.421875 -60.925781 24.421875 -59.59375 Z M 51.09375 -26.5 C 51.113281 -25.925781 50.859375 -25.148438 50.328125 -24.171875 C 49.804688 -23.203125 49.085938 -22.097656 48.171875 -20.859375 C 47.265625 -19.628906 46.207031 -18.304688 45 -16.890625 C 43.789062 -15.484375 42.523438 -14.070312 41.203125 -12.65625 C 39.679688 -11.03125 38.070312 -9.460938 36.375 -7.953125 C 34.675781 -6.453125 32.863281 -4.992188 30.9375 -3.578125 C 27.132812 -0.753906 23.742188 0.65625 20.765625 0.65625 C 17.484375 0.65625 14.929688 -0.441406 13.109375 -2.640625 C 11.285156 -4.867188 10.050781 -7.554688 9.40625 -10.703125 C 8.75 -13.828125 8.421875 -17.046875 8.421875 -20.359375 C 8.421875 -21.742188 8.585938 -23.898438 8.921875 -26.828125 C 9.078125 -28.296875 9.234375 -29.554688 9.390625 -30.609375 C 9.554688 -31.671875 9.738281 -32.523438 9.9375 -33.171875 C 10.3125 -34.453125 11.109375 -35.566406 12.328125 -36.515625 C 13.578125 -37.523438 14.882812 -38.03125 16.25 -38.03125 C 16.976562 -38.03125 17.34375 -37.335938 17.34375 -35.953125 C 17.34375 -35.023438 17.253906 -33.976562 17.078125 -32.8125 C 16.898438 -31.644531 16.71875 -30.492188 16.53125 -29.359375 C 16.175781 -27.210938 15.914062 -25.289062 15.75 -23.59375 C 15.59375 -21.894531 15.515625 -20.421875 15.515625 -19.171875 C 15.515625 -16.429688 15.894531 -13.664062 16.65625 -10.875 C 17.414062 -8.019531 18.785156 -6.59375 20.765625 -6.59375 C 22.773438 -6.59375 25.109375 -7.328125 27.765625 -8.796875 C 29.097656 -9.554688 30.425781 -10.394531 31.75 -11.3125 C 33.082031 -12.238281 34.414062 -13.269531 35.75 -14.40625 C 37.101562 -15.550781 38.40625 -16.695312 39.65625 -17.84375 C 40.90625 -19 42.125 -20.1875 43.3125 -21.40625 C 44.507812 -22.632812 45.582031 -23.773438 46.53125 -24.828125 C 47.476562 -25.890625 48.304688 -26.867188 49.015625 -27.765625 C 49.046875 -27.816406 49.09375 -27.90625 49.15625 -28.03125 C 49.226562 -28.15625 49.300781 -28.273438 49.375 -28.390625 C 49.457031 -28.515625 49.539062 -28.617188 49.625 -28.703125 C 49.707031 -28.785156 49.789062 -28.8125 49.875 -28.78125 C 50.25 -28.78125 50.53125 -28.484375 50.71875 -27.890625 C 50.96875 -27.316406 51.09375 -26.851562 51.09375 -26.5 Z M 51.09375 -26.5 "/></g></g></g><g fill="#0693e3" fill-opacity="1"><g transform="translate(562.828741, 428.624998)"><g><path d="M 76.859375 -29.109375 C 76.859375 -28.585938 76.769531 -28.0625 76.59375 -27.53125 C 76.414062 -27.007812 76.195312 -26.484375 75.9375 -25.953125 C 75.6875 -25.421875 75.394531 -24.90625 75.0625 -24.40625 C 74.738281 -23.90625 74.429688 -23.421875 74.140625 -22.953125 C 73.347656 -21.734375 72.421875 -20.492188 71.359375 -19.234375 C 70.304688 -17.972656 69.175781 -16.742188 67.96875 -15.546875 C 66.757812 -14.359375 65.515625 -13.234375 64.234375 -12.171875 C 62.960938 -11.109375 61.71875 -10.171875 60.5 -9.359375 C 59.519531 -8.710938 58.585938 -8.101562 57.703125 -7.53125 C 56.828125 -6.957031 55.941406 -6.46875 55.046875 -6.0625 C 54.148438 -5.65625 53.210938 -5.328125 52.234375 -5.078125 C 51.253906 -4.835938 50.179688 -4.71875 49.015625 -4.71875 C 46.765625 -4.71875 44.929688 -5.289062 43.515625 -6.4375 C 42.816406 -7 42.203125 -7.734375 41.671875 -8.640625 C 41.140625 -9.554688 40.675781 -10.570312 40.28125 -11.6875 C 39.882812 -12.800781 39.546875 -13.976562 39.265625 -15.21875 C 38.984375 -16.46875 38.742188 -17.707031 38.546875 -18.9375 C 38.304688 -20.445312 38.078125 -21.804688 37.859375 -23.015625 C 37.640625 -24.222656 37.390625 -25.238281 37.109375 -26.0625 C 36.828125 -26.894531 36.476562 -27.535156 36.0625 -27.984375 C 35.65625 -28.429688 35.128906 -28.65625 34.484375 -28.65625 C 33.960938 -28.65625 33.472656 -28.597656 33.015625 -28.484375 C 32.554688 -28.378906 32.070312 -28.164062 31.5625 -27.84375 C 31.0625 -27.519531 30.515625 -27.054688 29.921875 -26.453125 C 29.328125 -25.859375 28.628906 -25.070312 27.828125 -24.09375 C 27.023438 -23.125 26.109375 -21.929688 25.078125 -20.515625 C 24.046875 -19.109375 22.835938 -17.425781 21.453125 -15.46875 C 20.773438 -14.519531 19.972656 -13.472656 19.046875 -12.328125 C 18.128906 -11.191406 17.1875 -10.109375 16.21875 -9.078125 C 15.257812 -8.046875 14.316406 -7.132812 13.390625 -6.34375 C 12.472656 -5.5625 11.660156 -5.0625 10.953125 -4.84375 C 8.566406 -5.363281 7.375 -8.335938 7.375 -13.765625 C 7.375 -15.203125 7.535156 -17.382812 7.859375 -20.3125 C 8.015625 -21.644531 8.203125 -23.035156 8.421875 -24.484375 C 8.640625 -25.941406 8.910156 -27.394531 9.234375 -28.84375 C 9.566406 -30.289062 9.941406 -31.703125 10.359375 -33.078125 C 10.773438 -34.453125 11.269531 -35.722656 11.84375 -36.890625 C 12.113281 -37.429688 12.398438 -37.859375 12.703125 -38.171875 C 13.003906 -38.484375 13.304688 -38.710938 13.609375 -38.859375 C 13.921875 -39.003906 14.25 -39.097656 14.59375 -39.140625 C 14.9375 -39.179688 15.285156 -39.203125 15.640625 -39.203125 C 16.066406 -39.203125 16.445312 -38.898438 16.78125 -38.296875 C 17.125 -37.703125 17.296875 -36.878906 17.296875 -35.828125 C 17.296875 -35.171875 17.238281 -34.554688 17.125 -33.984375 C 17.019531 -33.421875 16.875 -32.835938 16.6875 -32.234375 C 16.5 -31.640625 16.296875 -30.992188 16.078125 -30.296875 C 15.859375 -29.609375 15.640625 -28.816406 15.421875 -27.921875 C 15.265625 -27.191406 15.082031 -26.378906 14.875 -25.484375 C 14.675781 -24.585938 14.488281 -23.675781 14.3125 -22.75 C 14.132812 -21.832031 13.984375 -20.929688 13.859375 -20.046875 C 13.734375 -19.171875 13.671875 -18.378906 13.671875 -17.671875 C 13.671875 -17.179688 13.753906 -16.675781 13.921875 -16.15625 C 14.679688 -16.238281 15.929688 -17.378906 17.671875 -19.578125 C 18.566406 -20.691406 19.550781 -21.910156 20.625 -23.234375 C 21.695312 -24.566406 22.851562 -26.035156 24.09375 -27.640625 C 25.019531 -28.835938 25.9375 -29.953125 26.84375 -30.984375 C 27.757812 -32.015625 28.703125 -32.914062 29.671875 -33.6875 C 30.648438 -34.457031 31.6875 -35.066406 32.78125 -35.515625 C 33.882812 -35.960938 35.101562 -36.1875 36.4375 -36.1875 C 37.84375 -36.1875 39.015625 -35.878906 39.953125 -35.265625 C 40.890625 -34.660156 41.644531 -33.820312 42.21875 -32.75 C 42.789062 -31.675781 43.234375 -30.394531 43.546875 -28.90625 C 43.859375 -27.414062 44.109375 -25.773438 44.296875 -23.984375 C 44.453125 -22.460938 44.601562 -20.953125 44.75 -19.453125 C 44.90625 -17.960938 45.195312 -16.625 45.625 -15.4375 C 46.0625 -14.257812 46.6875 -13.304688 47.5 -12.578125 C 48.320312 -11.847656 49.492188 -11.484375 51.015625 -11.484375 C 52.179688 -11.484375 53.398438 -11.753906 54.671875 -12.296875 C 55.953125 -12.835938 57.296875 -13.585938 58.703125 -14.546875 C 60.117188 -15.515625 61.578125 -16.648438 63.078125 -17.953125 C 64.585938 -19.253906 66.144531 -20.679688 67.75 -22.234375 C 68.363281 -22.828125 69.046875 -23.578125 69.796875 -24.484375 C 70.546875 -25.390625 71.28125 -26.265625 72 -27.109375 C 72.71875 -27.953125 73.390625 -28.671875 74.015625 -29.265625 C 74.640625 -29.867188 75.140625 -30.171875 75.515625 -30.171875 C 75.679688 -30.171875 75.945312 -30.085938 76.3125 -29.921875 C 76.675781 -29.753906 76.859375 -29.484375 76.859375 -29.109375 Z M 76.859375 -29.109375 "/></g></g></g><g fill="#0693e3" fill-opacity="1"><g transform="translate(626.04613, 428.624998)"><g><path d="M 56.796875 -28.09375 C 56.796875 -27.6875 56.492188 -26.96875 55.890625 -25.9375 C 54.484375 -23.894531 52.90625 -21.851562 51.15625 -19.8125 C 49.40625 -17.78125 47.546875 -15.847656 45.578125 -14.015625 C 43.609375 -12.191406 41.554688 -10.484375 39.421875 -8.890625 C 37.296875 -7.304688 35.144531 -5.9375 32.96875 -4.78125 C 30.800781 -3.625 28.640625 -2.734375 26.484375 -2.109375 C 24.328125 -1.492188 22.242188 -1.195312 20.234375 -1.21875 C 15.890625 -1.21875 12.515625 -2.476562 10.109375 -5 C 7.710938 -7.53125 6.515625 -11.347656 6.515625 -16.453125 C 6.515625 -20.710938 7.171875 -24.847656 8.484375 -28.859375 C 9.804688 -32.878906 12.050781 -36.75 15.21875 -40.46875 C 15.820312 -41.113281 16.492188 -41.734375 17.234375 -42.328125 C 17.984375 -42.929688 18.769531 -43.460938 19.59375 -43.921875 C 20.425781 -44.390625 21.28125 -44.757812 22.15625 -45.03125 C 23.039062 -45.300781 23.929688 -45.460938 24.828125 -45.515625 C 25.046875 -45.515625 25.34375 -45.484375 25.71875 -45.421875 C 26.101562 -45.367188 26.515625 -45.273438 26.953125 -45.140625 C 27.390625 -45.003906 27.8125 -44.832031 28.21875 -44.625 C 28.625 -44.425781 28.945312 -44.179688 29.1875 -43.890625 C 29.945312 -43.015625 30.550781 -42.113281 31 -41.1875 C 31.445312 -40.269531 31.695312 -39.253906 31.75 -38.140625 C 31.800781 -36.890625 31.65625 -35.660156 31.3125 -34.453125 C 30.976562 -33.253906 30.410156 -32.019531 29.609375 -30.75 C 28.816406 -29.488281 27.765625 -28.1875 26.453125 -26.84375 C 25.148438 -25.5 23.578125 -24.054688 21.734375 -22.515625 C 20.566406 -21.535156 19.269531 -20.453125 17.84375 -19.265625 C 16.425781 -18.085938 14.710938 -16.847656 12.703125 -15.546875 C 12.703125 -12.921875 13.492188 -10.921875 15.078125 -9.546875 C 16.671875 -8.171875 18.851562 -7.484375 21.625 -7.484375 C 23.164062 -7.484375 24.722656 -7.6875 26.296875 -8.09375 C 27.867188 -8.507812 29.414062 -9.046875 30.9375 -9.703125 C 32.457031 -10.367188 33.929688 -11.128906 35.359375 -11.984375 C 36.785156 -12.835938 38.117188 -13.710938 39.359375 -14.609375 C 41.671875 -16.296875 43.765625 -17.972656 45.640625 -19.640625 C 47.515625 -21.304688 49.375 -23.066406 51.21875 -24.921875 L 53.40625 -27.109375 C 54.738281 -28.273438 55.703125 -28.859375 56.296875 -28.859375 C 56.628906 -28.859375 56.796875 -28.601562 56.796875 -28.09375 Z M 25.6875 -36.1875 C 25.65625 -36.59375 25.59375 -36.992188 25.5 -37.390625 C 25.40625 -37.785156 25.265625 -38.128906 25.078125 -38.421875 C 24.890625 -38.722656 24.671875 -38.960938 24.421875 -39.140625 C 24.179688 -39.316406 23.898438 -39.40625 23.578125 -39.40625 C 22.128906 -39.320312 20.6875 -38.445312 19.25 -36.78125 C 17.8125 -35.113281 16.457031 -32.910156 15.1875 -30.171875 C 14.882812 -29.566406 14.617188 -28.890625 14.390625 -28.140625 C 14.160156 -27.398438 13.941406 -26.644531 13.734375 -25.875 C 13.535156 -25.101562 13.359375 -24.335938 13.203125 -23.578125 C 13.054688 -22.816406 12.929688 -22.132812 12.828125 -21.53125 C 14.234375 -22.59375 15.53125 -23.570312 16.71875 -24.46875 C 17.914062 -25.363281 19.03125 -26.285156 20.0625 -27.234375 C 20.71875 -27.828125 21.382812 -28.46875 22.0625 -29.15625 C 22.738281 -29.851562 23.351562 -30.582031 23.90625 -31.34375 C 24.46875 -32.101562 24.910156 -32.890625 25.234375 -33.703125 C 25.566406 -34.515625 25.71875 -35.34375 25.6875 -36.1875 Z M 25.6875 -36.1875 "/></g></g></g><g fill="#0693e3" fill-opacity="1"><g transform="translate(669.93747, 428.624998)"><g/></g></g></svg>